<svg width="24" height="24" viewBox="0 0 24 24" fill="none" xmlns="http://www.w3.org/2000/svg">
<path d="M7 18V16M12 18V15M17 18V13M2.5 12C2.5 7.522 2.5 5.282 3.891 3.891C5.282 2.5 7.521 2.5 12 2.5C16.478 2.5 18.718 2.5 20.109 3.891C21.5 5.282 21.5 7.521 21.5 12C21.5 16.478 21.5 18.718 20.109 20.109C18.718 21.5 16.479 21.5 12 21.5C7.522 21.5 5.282 21.5 3.891 20.109C2.5 18.718 2.5 16.479 2.5 12Z" stroke="#6A7368" stroke-width="1.5" stroke-linecap="round" stroke-linejoin="round"/>
<path d="M5.99194 11.4855C8.14694 11.5575 13.0339 11.2325 15.8139 6.82049M13.9919 6.28749L15.8679 5.98549C16.0959 5.95649 16.4319 6.13749 16.5149 6.35249L17.0099 7.99049" stroke="#6A7368" stroke-width="1.5" stroke-linecap="round" stroke-linejoin="round"/>
</svg>
