<svg width="20" height="20" viewBox="0 0 20 20" fill="none" xmlns="http://www.w3.org/2000/svg">
<path d="M3.33203 8.33268C3.33203 5.19018 3.33203 3.61852 4.3087 2.64268C5.28536 1.66685 6.8562 1.66602 9.9987 1.66602H11.2487C14.3912 1.66602 15.9629 1.66602 16.9387 2.64268C17.9145 3.61935 17.9154 5.19018 17.9154 8.33268V11.666C17.9154 14.8085 17.9154 16.3802 16.9387 17.356C15.962 18.3318 14.3912 18.3327 11.2487 18.3327H9.9987C6.8562 18.3327 5.28453 18.3327 4.3087 17.356C3.33286 16.3793 3.33203 14.8085 3.33203 11.666V8.33268Z" stroke="#676767" stroke-width="1.25" stroke-linecap="round" stroke-linejoin="round"/>
<path d="M8.16536 9.97833C7.80953 9.35833 7.63786 8.8525 7.53453 8.33917C7.3812 7.58083 7.73203 6.83917 8.31203 6.36583C8.55786 6.16583 8.8387 6.23417 8.9837 6.495L9.3112 7.0825C9.57036 7.5475 9.70036 7.78083 9.67453 8.0275C9.64953 8.27417 9.47453 8.475 9.12453 8.8775L8.16536 9.97833ZM8.16536 9.97833C8.91545 11.2636 9.98505 12.3332 11.2704 13.0833M11.2704 13.0833C11.8904 13.4392 12.3962 13.6108 12.9095 13.7142C13.6679 13.8675 14.4095 13.5167 14.8829 12.9367C15.0829 12.6908 15.0145 12.41 14.7537 12.265L14.167 11.9375C13.7004 11.6783 13.4679 11.5483 13.2212 11.5742C12.9745 11.5992 12.7737 11.7742 12.3712 12.1242L11.2704 13.0833ZM4.16536 5H2.08203M4.16536 10H2.08203M4.16536 15H2.08203" stroke="#676767" stroke-width="1.25" stroke-linecap="round" stroke-linejoin="round"/>
</svg>
