<svg width="278" height="278" viewBox="0 0 278 278" fill="none" xmlns="http://www.w3.org/2000/svg">
<path d="M242.404 115.717C165.839 105.2 99.8137 162.051 104.25 237.458M75.2917 92.6667C75.2917 98.8109 77.7325 104.703 82.0771 109.048C86.4217 113.393 92.3142 115.833 98.4584 115.833C104.603 115.833 110.495 113.393 114.84 109.048C119.184 104.703 121.625 98.8109 121.625 92.6667C121.625 86.5225 119.184 80.63 114.84 76.2854C110.495 71.9408 104.603 69.5 98.4584 69.5C92.3142 69.5 86.4217 71.9408 82.0771 76.2854C77.7325 80.63 75.2917 86.5225 75.2917 92.6667Z" stroke="black" stroke-width="17.375" stroke-linecap="round" stroke-linejoin="round"/>
<path d="M34.75 151.347C66.9517 146.887 95.8521 162.444 111.478 187.255" stroke="black" stroke-width="17.375" stroke-linecap="round" stroke-linejoin="round"/>
<path d="M34.75 108.883C34.75 82.9367 34.75 69.9633 39.8003 60.048C44.2424 51.3302 51.3302 44.2424 60.048 39.8003C69.9633 34.75 82.9367 34.75 108.883 34.75H169.117C195.063 34.75 208.037 34.75 217.952 39.8003C226.67 44.2424 233.758 51.3302 238.2 60.048C243.25 69.9633 243.25 82.9367 243.25 108.883V169.117C243.25 195.063 243.25 208.037 238.2 217.952C233.758 226.67 226.67 233.758 217.952 238.2C208.037 243.25 195.063 243.25 169.117 243.25H108.883C82.9367 243.25 69.9633 243.25 60.048 238.2C51.3302 233.758 44.2424 226.67 39.8003 217.952C34.75 208.037 34.75 195.063 34.75 169.117V108.883Z" stroke="black" stroke-width="17.375" stroke-linecap="round" stroke-linejoin="round"/>
</svg>
