<svg width="398" height="397" viewBox="0 0 398 397" fill="none" xmlns="http://www.w3.org/2000/svg">
<path d="M391.289 155.244C249.039 135.703 126.373 241.325 134.615 381.422M80.8145 112.418C80.8145 123.833 85.3492 134.781 93.4209 142.852C101.493 150.924 112.44 155.459 123.855 155.459C135.27 155.459 146.218 150.924 154.29 142.852C162.361 134.781 166.896 123.833 166.896 112.418C166.896 101.003 162.361 90.0555 154.29 81.9838C146.218 73.9121 135.27 69.3774 123.855 69.3774C112.44 69.3774 101.493 73.9121 93.4209 81.9838C85.3492 90.0555 80.8145 101.003 80.8145 112.418Z" stroke="#6A7368" stroke-width="9.3907" stroke-linecap="round" stroke-linejoin="round"/>
<path d="M5.49326 221.441C65.3198 213.156 119.013 242.058 148.044 288.154" stroke="#6A7368" stroke-width="9.3907" stroke-linecap="round" stroke-linejoin="round"/>
<path d="M5.49326 142.547C5.49326 94.3411 5.49327 70.2383 14.8761 51.8169C23.1289 35.6203 36.2972 22.4521 52.4937 14.1993C70.9151 4.81641 95.0179 4.81641 143.223 4.81641H255.129C303.335 4.81641 327.438 4.81641 345.859 14.1993C362.056 22.4521 375.224 35.6203 383.477 51.8169C392.86 70.2383 392.86 94.3411 392.86 142.547V254.452C392.86 302.658 392.86 326.761 383.477 345.182C375.224 361.379 362.056 374.547 345.859 382.8C327.438 392.183 303.335 392.183 255.129 392.183H143.223C95.0179 392.183 70.9151 392.183 52.4937 382.8C36.2972 374.547 23.1289 361.379 14.8761 345.182C5.49327 326.761 5.49326 302.658 5.49326 254.452V142.547Z" stroke="#6A7368" stroke-width="9.3907" stroke-linecap="round" stroke-linejoin="round"/>
</svg>
