<svg width="246" height="220" viewBox="0 0 246 220" fill="none" xmlns="http://www.w3.org/2000/svg">
<path d="M192.555 189.377C193.798 193.08 194.061 197.042 193.319 200.876C192.577 204.711 190.855 208.288 188.321 211.26C185.786 214.232 182.526 216.498 178.857 217.836C175.187 219.175 171.234 219.541 167.381 218.899C165.625 218.598 163.909 218.094 162.268 217.398C161.767 217.182 161.273 216.953 160.792 216.706C158.658 215.613 156.713 214.187 155.029 212.482C154.696 212.148 154.375 211.802 154.066 211.45C152.117 209.212 150.627 206.612 149.681 203.798C149.594 203.533 149.508 203.267 149.434 202.995C148.408 199.511 148.235 195.832 148.931 192.267C149.626 188.702 151.169 185.357 153.429 182.514C155.69 179.671 158.601 177.414 161.917 175.933C165.233 174.452 168.857 173.791 172.483 174.005C173.032 174.042 173.57 174.092 174.113 174.166C176.455 174.48 178.732 175.16 180.864 176.179C181.327 176.401 181.79 176.642 182.241 176.896C186.853 179.494 190.404 183.633 192.271 188.587C192.37 188.846 192.462 189.112 192.555 189.377Z" fill="#043D12"/>
<path d="M192.555 189.377C193.798 193.08 194.061 197.042 193.319 200.876C192.577 204.711 190.855 208.288 188.321 211.26C185.786 214.232 182.526 216.498 178.857 217.836C175.187 219.175 171.234 219.541 167.381 218.899C165.625 218.598 163.909 218.094 162.268 217.398C161.767 217.182 161.273 216.953 160.792 216.706C158.658 215.613 156.713 214.187 155.029 212.482C154.696 212.148 154.375 211.802 154.066 211.45C152.117 209.212 150.627 206.612 149.681 203.798C149.594 203.533 149.508 203.267 149.434 202.995C148.408 199.511 148.235 195.832 148.931 192.267C149.626 188.702 151.169 185.357 153.429 182.514C155.69 179.671 158.601 177.414 161.917 175.933C165.233 174.452 168.857 173.791 172.483 174.005C173.032 174.042 173.57 174.092 174.113 174.166C176.455 174.48 178.732 175.16 180.864 176.179C181.327 176.401 181.79 176.642 182.241 176.896C186.853 179.494 190.404 183.633 192.271 188.587C192.37 188.846 192.462 189.112 192.555 189.377Z" fill="#043D12"/>
<path opacity="0.6" d="M188.504 191.613C188.337 191.187 188.158 190.773 187.96 190.377C186.21 186.723 183.282 183.763 179.647 181.972C179.184 181.743 178.715 181.533 178.233 181.354C175.992 180.476 173.598 180.056 171.192 180.119C170.591 180.132 169.992 180.175 169.395 180.249C168.201 180.399 167.026 180.67 165.887 181.058C161.482 182.545 157.817 185.669 155.653 189.785C153.489 193.9 152.992 198.69 154.264 203.162L153.986 202.384C153.202 200.127 152.873 197.738 153.018 195.353C153.162 192.969 153.779 190.636 154.83 188.491C155.882 186.346 157.348 184.431 159.145 182.856C160.941 181.282 163.032 180.078 165.296 179.317C167.56 178.555 169.953 178.249 172.336 178.417C174.719 178.586 177.045 179.225 179.179 180.298C181.314 181.37 183.214 182.856 184.771 184.667C186.328 186.479 187.511 188.581 188.251 190.853C188.343 191.088 188.43 191.353 188.504 191.613Z" fill="black"/>
<g opacity="0.3">
<path d="M176.88 213.717C176.677 213.791 176.473 213.852 176.263 213.914L175.645 214.087L175.491 214.13L174.811 214.285H174.713C173.979 214.436 173.236 214.539 172.489 214.594C172.236 214.594 171.989 214.631 171.736 214.631C171.235 214.631 170.741 214.631 170.241 214.631L169.759 214.6H169.5L169.117 214.556C168.919 214.556 168.714 214.532 168.499 214.482C168.246 214.445 167.999 214.408 167.746 214.353C167.493 214.297 167.246 214.254 166.999 214.198C166.752 214.143 166.591 214.099 166.381 214.038L165.986 213.927L165.671 213.834L165.306 213.71L164.72 213.5C164.547 213.439 164.38 213.371 164.213 213.297L164.102 213.253C163.867 213.148 163.627 213.05 163.392 212.938C163.157 212.827 162.96 212.728 162.743 212.611H162.706L162.317 212.401L161.941 212.179L161.576 211.963L161.187 211.716L160.823 211.468L160.464 211.215C160.217 211.036 159.977 210.851 159.736 210.653L159.445 210.419C159.211 210.221 158.982 210.015 158.76 209.801L158.439 209.498C158.105 209.171 157.784 208.825 157.475 208.473L157.228 208.183C157.049 207.967 156.876 207.757 156.703 207.528V207.497C156.537 207.275 156.37 207.046 156.215 206.812L155.993 206.491L155.888 206.324C155.814 206.207 155.74 206.089 155.672 205.972L155.635 205.916C155.555 205.787 155.474 205.644 155.4 205.509C155.326 205.373 155.227 205.206 155.153 205.052C155.079 204.897 154.986 204.749 154.912 204.595C154.838 204.44 154.795 204.348 154.733 204.218C154.671 204.088 154.659 204.057 154.628 203.977C154.572 203.867 154.523 203.753 154.48 203.637L154.276 203.149C153.004 198.677 153.502 193.887 155.666 189.772C157.83 185.657 161.494 182.532 165.899 181.045C167.038 180.658 168.214 180.387 169.407 180.236C170.004 180.162 170.604 180.119 171.205 180.107C173.61 180.044 176.004 180.464 178.245 181.342C178.727 181.527 179.196 181.737 179.66 181.959C183.294 183.75 186.222 186.711 187.972 190.365C188.17 190.773 188.349 191.186 188.516 191.6C189.793 196.076 189.296 200.871 187.129 204.989C184.962 209.108 181.292 212.234 176.88 213.717Z" fill="black"/>
</g>
<g opacity="0.6">
<path d="M176.769 205.503L177.727 208.35L174.114 209.585L173.2 206.867C170.865 207.555 168.404 207.701 166.005 207.294L166.468 202.223C168.622 202.656 170.852 202.535 172.946 201.871C174.663 201.297 175.157 200.728 174.954 200.111C174.194 197.857 164.881 203.014 162.632 196.325C161.657 193.428 162.935 190.285 166.956 188.296L166.017 185.498L169.63 184.263L170.556 187.012C172.42 186.534 174.363 186.444 176.263 186.746L175.917 191.742C174.099 191.425 172.232 191.545 170.47 192.094C168.697 192.712 168.308 193.391 168.512 194.003C169.241 196.158 178.56 191.026 180.784 197.64C181.704 200.413 180.512 203.501 176.769 205.503Z" fill="black"/>
</g>
<path d="M176.349 204.595L177.306 207.442L173.687 208.677L172.773 205.96C170.438 206.646 167.977 206.79 165.578 206.38L166.048 201.315C168.2 201.743 170.426 201.622 172.52 200.963C174.243 200.383 174.737 199.815 174.527 199.203C173.768 196.943 164.454 202.106 162.206 195.411C161.23 192.514 162.515 189.371 166.529 187.382L165.578 184.554L169.197 183.318L170.118 186.061C171.982 185.586 173.924 185.496 175.824 185.795L175.478 190.798C173.661 190.481 171.794 190.6 170.031 191.143C168.259 191.761 167.869 192.44 168.079 193.058C168.802 195.213 178.122 190.075 180.345 196.696C181.278 199.481 180.092 202.563 176.349 204.595Z" fill="#FFCF00"/>
<path d="M69.566 95.9339C68.7962 99.2335 67.2955 102.318 65.1746 104.961C63.0536 107.603 60.3665 109.735 57.3115 111.201C54.2564 112.666 50.9114 113.427 47.5232 113.427C44.1349 113.427 40.7899 112.666 37.7348 111.201C35.9019 110.324 34.1979 109.2 32.6704 107.86C31.3302 106.684 30.1321 105.355 29.1007 103.901C28.7857 103.456 28.4831 102.999 28.2113 102.536C26.9699 100.487 26.061 98.2548 25.5186 95.9215C25.4136 95.4583 25.321 95.0013 25.2407 94.5319C24.7536 91.6042 24.8502 88.609 25.5248 85.7187C25.5865 85.447 25.6545 85.1752 25.7348 84.9097C26.6867 81.4035 28.469 78.1783 30.931 75.5066C33.393 72.835 36.4622 70.7956 39.879 69.5609C43.2958 68.3263 46.9597 67.9327 50.5608 68.4134C54.1619 68.8942 57.5943 70.2352 60.5675 72.3229C61.0122 72.6379 61.4445 72.9405 61.8645 73.3111C63.6956 74.8055 65.2796 76.5792 66.5583 78.5669C66.8362 78.9992 67.1079 79.4439 67.355 79.8947C69.1935 83.2236 70.1641 86.9618 70.1774 90.7645C70.1751 92.2154 70.0366 93.6628 69.7636 95.0877C69.6833 95.3842 69.6277 95.6621 69.566 95.9339Z" fill="#043D12"/>
<path d="M69.566 95.9339C68.7962 99.2335 67.2955 102.318 65.1746 104.961C63.0536 107.603 60.3665 109.735 57.3115 111.201C54.2564 112.666 50.9114 113.427 47.5232 113.427C44.1349 113.427 40.7899 112.666 37.7348 111.201C35.9019 110.324 34.1979 109.2 32.6704 107.86C31.3302 106.684 30.1321 105.355 29.1007 103.901C28.7857 103.456 28.4831 102.999 28.2113 102.536C26.9699 100.487 26.061 98.2548 25.5186 95.9215C25.4136 95.4583 25.321 95.0013 25.2407 94.5319C24.7536 91.6042 24.8502 88.609 25.5248 85.7187C25.5865 85.447 25.6545 85.1752 25.7348 84.9097C26.6867 81.4035 28.469 78.1783 30.931 75.5066C33.393 72.835 36.4622 70.7956 39.879 69.5609C43.2958 68.3263 46.9597 67.9327 50.5608 68.4134C54.1619 68.8942 57.5943 70.2352 60.5675 72.3229C61.0122 72.6379 61.4445 72.9405 61.8645 73.3111C63.6956 74.8055 65.2796 76.5792 66.5583 78.5669C66.8362 78.9992 67.1079 79.4439 67.355 79.8947C69.1935 83.2236 70.1641 86.9618 70.1774 90.7645C70.1751 92.2154 70.0366 93.6628 69.7636 95.0877C69.6833 95.3842 69.6277 95.6621 69.566 95.9339Z" fill="#043D12"/>
<path opacity="0.6" d="M64.9399 95.7117C65.0202 95.267 65.0881 94.8161 65.1314 94.3653C65.55 90.3345 64.6016 86.2801 62.4386 82.8532C62.1669 82.4126 61.8766 81.9865 61.5678 81.5748C60.1224 79.6488 58.3059 78.0318 56.2256 76.8192C55.7067 76.5166 55.1728 76.2403 54.626 75.9916C52.2524 74.9088 49.6724 74.3528 47.0635 74.3618C44.4546 74.3708 41.8786 74.9445 39.5125 76.0437C37.1464 77.1428 35.0463 78.7412 33.3567 80.7291C31.667 82.7169 30.4278 85.0471 29.7242 87.5593C29.7798 87.2876 29.8354 87.0158 29.8972 86.7441C31.0975 82.2007 34.0199 78.3033 38.0449 75.8779C42.0699 73.4526 46.8812 72.6899 51.459 73.7517C56.0368 74.8134 60.0212 77.616 62.5677 81.5655C65.1142 85.515 66.0226 90.3009 65.1005 94.9088C65.082 95.1805 65.0079 95.4523 64.9399 95.7117Z" fill="black"/>
<g opacity="0.3">
<path d="M43.4472 108.434C43.2373 108.391 43.0335 108.335 42.8296 108.28L42.212 108.101L42.0576 108.051L41.3968 107.829L41.3042 107.792C40.6005 107.534 39.9137 107.233 39.2475 106.89C39.0252 106.773 38.8029 106.656 38.5867 106.526C38.1482 106.279 37.7282 106.019 37.3515 105.735L36.9624 105.457L36.7463 105.297L36.4436 105.062C36.2892 104.945 36.1348 104.821 35.9804 104.685C35.826 104.55 35.5913 104.358 35.4061 104.179C35.2208 104 35.0293 103.833 34.8502 103.654C34.6711 103.475 34.5599 103.358 34.4179 103.203C34.2759 103.049 34.2264 103.006 34.14 102.901C34.0535 102.796 33.9918 102.734 33.9176 102.653L33.6706 102.357L33.2815 101.869C33.1703 101.727 33.0592 101.585 32.9604 101.437L32.8862 101.338C32.738 101.128 32.5898 100.912 32.4478 100.72C32.3057 100.529 32.1884 100.313 32.0648 100.103V100.072C31.9907 99.9484 31.9166 99.8187 31.8487 99.689C31.7807 99.5593 31.7066 99.4296 31.6387 99.2999L31.4411 98.9232C31.3793 98.7873 31.3052 98.6514 31.2434 98.5155L31.0643 98.1079C31.0026 97.9782 30.947 97.8424 30.8914 97.7065C30.774 97.4286 30.6691 97.1445 30.5641 96.848L30.4405 96.496C30.3417 96.2057 30.2553 95.9093 30.1811 95.619C30.1379 95.4708 30.1009 95.3287 30.0638 95.1867C29.9526 94.7296 29.86 94.2726 29.7797 93.8094L29.7241 93.4389C29.6809 93.1609 29.65 92.883 29.6191 92.6051V92.5619C29.6191 92.2839 29.5697 91.9998 29.5574 91.7219V91.3328V91.0981C29.5574 90.9623 29.5574 90.8202 29.5574 90.6844V90.6226C29.5574 90.462 29.5574 90.3076 29.5574 90.147C29.5574 89.9865 29.5574 89.8012 29.5574 89.6283C29.5574 89.4553 29.5574 89.2824 29.5944 89.1156C29.6315 88.9489 29.5944 88.8377 29.6438 88.7018C29.6932 88.566 29.6438 88.5227 29.6438 88.4363C29.6438 88.3498 29.6747 88.1954 29.6932 88.0719C29.7118 87.9484 29.7488 87.726 29.7797 87.5531C30.4833 85.0408 31.7225 82.7107 33.4121 80.7229C35.1018 78.735 37.2019 77.1366 39.568 76.0375C41.934 74.9383 44.5101 74.3646 47.119 74.3556C49.7279 74.3466 52.3078 74.9026 54.6814 75.9854C55.2282 76.2341 55.7621 76.5104 56.281 76.813C58.3614 78.0256 60.1779 79.6426 61.6233 81.5686C61.9321 81.9803 62.2224 82.4064 62.4941 82.847C64.6485 86.2769 65.5881 90.3312 65.1621 94.3591C65.1189 94.8099 65.051 95.2608 64.9707 95.7055C63.7093 100.188 60.7686 104.013 56.76 106.383C52.7514 108.754 47.9834 109.489 43.4472 108.434Z" fill="black"/>
</g>
<g opacity="0.6">
<path d="M47.6655 101.387L46.9861 104.309L43.2929 103.45L43.9105 100.659C41.5682 100.027 39.4009 98.8699 37.5739 97.2741L40.6248 93.2041C42.2329 94.6994 44.1943 95.762 46.3253 96.2921C48.0916 96.7059 48.7957 96.4836 48.9563 95.8475C49.4936 93.5315 38.8585 93.0374 40.4519 86.1573C41.1436 83.1804 43.8857 81.1794 48.3448 81.5747L49.0118 78.6967L52.7175 79.5613L52.0628 82.3837C53.8992 82.9563 55.5994 83.8978 57.0592 85.1506L54.1441 89.2206C52.7597 88.001 51.1071 87.125 49.3206 86.6637C47.5049 86.2376 46.8008 86.6328 46.6526 87.2813C46.14 89.4985 56.7689 90.0173 55.194 96.8171C54.5456 99.621 51.9393 101.597 47.6655 101.387Z" fill="black"/>
</g>
<path d="M47.783 100.362L47.1036 103.29L43.398 102.425L44.0156 99.6333C41.6684 98.994 39.4987 97.8257 37.6729 96.218L40.7238 92.148C42.3319 93.6433 44.2933 94.7058 46.4243 95.236C48.1906 95.6436 48.8947 95.4213 49.0553 94.7913C49.5926 92.4691 38.9575 91.975 40.5509 85.095C41.2426 82.1181 43.9847 80.1171 48.4438 80.5123L49.1108 77.6405L52.8165 78.499L52.1618 81.3214C53.9982 81.894 55.6984 82.8355 57.1582 84.0883L54.2431 88.1644C52.8609 86.9402 51.2077 86.0618 49.4196 85.6014C47.6039 85.1814 46.8998 85.6014 46.7516 86.219C46.239 88.43 56.8679 88.9488 55.293 95.7486C54.6631 98.6204 52.0321 100.621 47.783 100.362Z" fill="#FFCF00"/>
<path d="M223.695 167.483L230.353 174.141L186.83 217.663H198.194L236.034 179.823L242.915 186.697L245.681 164.716L223.695 167.483Z" fill="#043D12"/>
<g opacity="0.3">
<path d="M223.695 167.483L230.353 174.141L186.83 217.663H198.194L236.034 179.823L242.915 186.697L245.681 164.716L223.695 167.483Z" fill="white"/>
</g>
<path d="M56.6516 147.955L63.3093 154.619L0.258301 217.663H11.616L68.9912 160.3L75.8713 167.174L78.6382 145.188L56.6516 147.955Z" fill="#043D12"/>
<g opacity="0.3">
<path d="M56.6516 147.955L63.3093 154.619L0.258301 217.663H11.616L68.9912 160.3L75.8713 167.174L78.6382 145.188L56.6516 147.955Z" fill="white"/>
</g>
<path d="M83.3134 30.3693L85.1106 29.8567L83.9619 25.867L81.8867 26.4846C81.2924 25.8118 80.5475 25.2891 79.7128 24.9591V22.8593H75.5625V24.9591C74.9114 25.2172 74.3128 25.5918 73.7961 26.0646L71.9433 25.1753L70.1276 28.8809L71.9495 29.7702C71.9495 29.9184 71.9495 30.0728 71.9495 30.2211C71.9498 31.1919 72.1985 32.1466 72.6721 32.9941L71.3072 34.7049L74.5496 37.2926L75.8774 35.6313C76.446 35.8155 77.04 35.9093 77.6376 35.9092C78.0745 35.9084 78.5097 35.8566 78.9346 35.7548L80.1327 37.4408L83.5172 35.0384L82.3499 33.3955C82.9547 32.5001 83.2892 31.4496 83.3134 30.3693ZM73.9011 30.2211C73.9011 29.4895 74.1177 28.7743 74.5235 28.1656C74.9294 27.5569 75.5063 27.0819 76.1816 26.8006C76.8569 26.5192 77.6004 26.4441 78.3184 26.5846C79.0363 26.7251 79.6967 27.0749 80.2161 27.5901C80.7355 28.1052 81.0909 28.7626 81.2373 29.4794C81.3838 30.1962 81.3148 30.9403 81.039 31.6179C80.7633 32.2955 80.2932 32.8764 79.6879 33.2872C79.0825 33.6981 78.3692 33.9206 77.6376 33.9267C76.6524 33.9251 75.7076 33.5352 75.0081 32.8414C74.3086 32.1477 73.9109 31.2062 73.9011 30.2211Z" fill="#043D12"/>
<path opacity="0.6" d="M83.3134 30.3693L85.1106 29.8567L83.9619 25.867L81.8867 26.4846C81.2924 25.8118 80.5475 25.2891 79.7128 24.9591V22.8593H75.5625V24.9591C74.9114 25.2172 74.3128 25.5918 73.7961 26.0646L71.9433 25.1753L70.1276 28.8809L71.9495 29.7702C71.9495 29.9184 71.9495 30.0728 71.9495 30.2211C71.9498 31.1919 72.1985 32.1466 72.6721 32.9941L71.3072 34.7049L74.5496 37.2926L75.8774 35.6313C76.446 35.8155 77.04 35.9093 77.6376 35.9092C78.0745 35.9084 78.5097 35.8566 78.9346 35.7548L80.1327 37.4408L83.5172 35.0384L82.3499 33.3955C82.9547 32.5001 83.2892 31.4496 83.3134 30.3693ZM73.9011 30.2211C73.9011 29.4895 74.1177 28.7743 74.5235 28.1656C74.9294 27.5569 75.5063 27.0819 76.1816 26.8006C76.8569 26.5192 77.6004 26.4441 78.3184 26.5846C79.0363 26.7251 79.6967 27.0749 80.2161 27.5901C80.7355 28.1052 81.0909 28.7626 81.2373 29.4794C81.3838 30.1962 81.3148 30.9403 81.039 31.6179C80.7633 32.2955 80.2932 32.8764 79.6879 33.2872C79.0825 33.6981 78.3692 33.9206 77.6376 33.9267C76.6524 33.9251 75.7076 33.5352 75.0081 32.8414C74.3086 32.1477 73.9109 31.2062 73.9011 30.2211Z" fill="white"/>
<path d="M172.73 108.539L174.521 108.027L173.378 104.068L171.303 104.685C170.709 104.013 169.964 103.49 169.129 103.16V100.98H164.961V103.08C164.309 103.336 163.71 103.711 163.194 104.185L161.341 103.296L159.526 107.001L161.378 107.891C161.378 108.039 161.378 108.187 161.378 108.342C161.376 109.313 161.625 110.268 162.101 111.115L160.73 112.825L163.979 115.413L165.306 113.752C165.875 113.936 166.469 114.03 167.067 114.03C167.503 114.029 167.939 113.977 168.364 113.875L169.562 115.561L172.946 113.159L171.754 111.559C172.362 110.667 172.701 109.619 172.73 108.539ZM163.318 108.391C163.324 107.661 163.546 106.949 163.955 106.344C164.365 105.739 164.944 105.269 165.619 104.993C166.295 104.716 167.038 104.645 167.754 104.789C168.47 104.933 169.127 105.285 169.643 105.802C170.16 106.318 170.512 106.976 170.656 107.691C170.8 108.407 170.729 109.15 170.453 109.826C170.176 110.502 169.706 111.081 169.101 111.49C168.497 111.9 167.784 112.121 167.054 112.127C166.562 112.132 166.075 112.038 165.619 111.851C165.164 111.665 164.751 111.39 164.403 111.042C164.055 110.694 163.78 110.281 163.594 109.826C163.407 109.371 163.314 108.883 163.318 108.391Z" fill="#043D12"/>
<path opacity="0.6" d="M172.73 108.539L174.521 108.027L173.378 104.068L171.303 104.685C170.709 104.013 169.964 103.49 169.129 103.16V100.98H164.961V103.08C164.309 103.336 163.71 103.711 163.194 104.185L161.341 103.296L159.526 107.001L161.378 107.891C161.378 108.039 161.378 108.187 161.378 108.342C161.376 109.313 161.625 110.268 162.101 111.115L160.73 112.825L163.979 115.413L165.306 113.752C165.875 113.936 166.469 114.03 167.067 114.03C167.503 114.029 167.939 113.977 168.364 113.875L169.562 115.561L172.946 113.159L171.754 111.559C172.362 110.667 172.701 109.619 172.73 108.539ZM163.318 108.391C163.324 107.661 163.546 106.949 163.955 106.344C164.365 105.739 164.944 105.269 165.619 104.993C166.295 104.716 167.038 104.645 167.754 104.789C168.47 104.933 169.127 105.285 169.643 105.802C170.16 106.318 170.512 106.976 170.656 107.691C170.8 108.407 170.729 109.15 170.453 109.826C170.176 110.502 169.706 111.081 169.101 111.49C168.497 111.9 167.784 112.121 167.054 112.127C166.562 112.132 166.075 112.038 165.619 111.851C165.164 111.665 164.751 111.39 164.403 111.042C164.055 110.694 163.78 110.281 163.594 109.826C163.407 109.371 163.314 108.883 163.318 108.391Z" fill="white"/>
<path d="M216.53 109.12L213.763 131.1L207.248 124.584L142.85 188.976H76.5938L47.9 217.663H36.5485L73.2649 180.947H139.527L201.566 118.902L194.55 111.886L216.53 109.12Z" fill="#043D12"/>
<path d="M126.336 167.391V176.574L130.041 176.871L131.857 168.274L126.336 167.391Z" fill="#BD905B"/>
<path d="M128.967 176.006C128.967 176.006 130.134 173.764 130.819 174.005C131.505 174.246 131.789 176.963 131.789 176.963C131.789 176.963 135.495 178.199 136.569 178.279C137.644 178.359 138.459 178.934 138.595 180.978H125.829C125.829 180.978 125.916 176.371 125.94 175.58C125.965 174.79 127.089 175.778 127.089 175.778L128.967 176.006Z" fill="#263238"/>
<path d="M125.971 177.328C126.201 177.453 126.402 177.625 126.563 177.831C126.724 178.038 126.841 178.275 126.906 178.529C126.971 178.782 126.984 179.047 126.943 179.305C126.903 179.564 126.809 179.811 126.669 180.032C126.661 180.043 126.655 180.056 126.652 180.069C126.649 180.082 126.649 180.096 126.651 180.109C126.654 180.123 126.659 180.135 126.667 180.147C126.674 180.158 126.684 180.167 126.696 180.175C126.707 180.182 126.72 180.187 126.734 180.189C126.747 180.191 126.761 180.19 126.774 180.187C126.787 180.183 126.799 180.177 126.81 180.168C126.821 180.16 126.829 180.149 126.836 180.137C126.99 179.896 127.094 179.626 127.141 179.344C127.188 179.061 127.177 178.772 127.108 178.494C127.039 178.216 126.914 177.955 126.741 177.727C126.568 177.499 126.35 177.308 126.101 177.167C125.996 177.105 125.872 177.278 125.977 177.34L125.971 177.328Z" fill="white"/>
<path d="M125.953 180.243L135.964 180.348H138.292C138.422 180.348 138.453 180.144 138.323 180.144L128.306 180.039H125.977C125.848 180.039 125.823 180.243 125.977 180.243H125.953Z" fill="white"/>
<path d="M131.24 177.766C131.336 177.618 131.461 177.491 131.608 177.394C131.755 177.296 131.92 177.229 132.094 177.198C132.267 177.167 132.445 177.172 132.617 177.212C132.789 177.252 132.95 177.327 133.092 177.432C133.185 177.513 133.308 177.334 133.215 177.26C132.561 176.722 131.666 176.951 131.067 177.661C130.98 177.766 131.141 177.871 131.233 177.766H131.24Z" fill="white"/>
<path d="M132.295 178.093C132.393 177.946 132.518 177.821 132.666 177.724C132.813 177.628 132.978 177.562 133.151 177.532C133.325 177.501 133.502 177.506 133.674 177.546C133.845 177.587 134.006 177.661 134.148 177.766C134.247 177.846 134.37 177.667 134.271 177.593C133.617 177.05 132.721 177.284 132.123 177.994C132.036 178.099 132.197 178.198 132.289 178.093H132.295Z" fill="white"/>
<path d="M133.389 178.427C133.486 178.28 133.612 178.155 133.759 178.058C133.906 177.961 134.071 177.896 134.245 177.865C134.418 177.835 134.596 177.84 134.767 177.88C134.938 177.92 135.1 177.995 135.241 178.1C135.34 178.174 135.463 178.001 135.365 177.92C134.71 177.383 133.815 177.618 133.222 178.328C133.129 178.433 133.29 178.532 133.382 178.427H133.389Z" fill="white"/>
<path d="M124.106 76.3744C124.211 78.0111 123.989 83.0445 124.211 85.7434C124.625 90.8942 125.187 97.5705 125.632 104.272C126.151 112.016 126.521 119.767 126.336 125.153C125.86 138.968 125.965 170.287 125.965 170.287H131.962C131.962 170.287 139.003 139.16 140.318 125.153C141.418 113.536 140.837 83.6127 140.652 76.3621L124.106 76.3744Z" fill="#263238"/>
<path opacity="0.2" d="M124.199 85.7433C124.613 90.8941 125.175 97.5704 125.619 104.271C128.572 95.5385 125.829 82.3403 125.829 82.3403L124.199 85.7433Z" fill="black"/>
<path d="M125.446 170.485H132.481L132.993 168.243L125.261 168.15L125.446 170.485Z" fill="#043D12"/>
<path d="M93.2385 165.68L91.8365 174.752L95.4557 175.611L98.5622 167.391L93.2385 165.68Z" fill="#BD905B"/>
<path d="M94.554 174.592C94.554 174.592 96.0486 172.56 96.6909 172.899C97.3332 173.239 97.1973 175.988 97.1973 175.988C97.1973 175.988 100.699 177.791 101.724 178.019C102.75 178.248 103.491 178.958 103.312 180.996L90.694 179.045C90.694 179.045 91.4845 174.505 91.6265 173.727C91.7686 172.949 92.7321 174.098 92.7321 174.098L94.554 174.592Z" fill="#263238"/>
<path d="M91.3609 175.444C91.5663 175.603 91.7371 175.803 91.8628 176.031C91.9884 176.259 92.0663 176.51 92.0918 176.769C92.1172 177.028 92.0896 177.289 92.0106 177.537C91.9317 177.785 91.803 178.014 91.6326 178.21C91.5523 178.315 91.6943 178.445 91.7807 178.334C91.9708 178.12 92.1151 177.869 92.2048 177.597C92.2944 177.325 92.3276 177.038 92.3021 176.753C92.2767 176.468 92.1932 176.191 92.0568 175.939C91.9204 175.688 91.734 175.467 91.5091 175.29C91.4164 175.209 91.2682 175.364 91.3609 175.444Z" fill="white"/>
<path d="M90.8976 178.322L100.779 179.952L103.077 180.329C103.206 180.329 103.262 180.156 103.132 180.138L93.2506 178.501L90.9531 178.124C90.8234 178.124 90.7679 178.297 90.8976 178.322Z" fill="white"/>
<path d="M96.4992 176.679C96.6175 176.547 96.7615 176.441 96.9223 176.367C97.0832 176.293 97.2575 176.253 97.4346 176.249C97.6116 176.245 97.7876 176.277 97.9517 176.344C98.1158 176.41 98.2645 176.51 98.3887 176.636C98.4689 176.729 98.6171 176.574 98.5368 176.482C98.3902 176.34 98.2167 176.229 98.0265 176.156C97.8363 176.082 97.6334 176.048 97.4296 176.054C97.2258 176.06 97.0253 176.107 96.8401 176.192C96.6548 176.278 96.4885 176.399 96.351 176.549C96.246 176.642 96.3942 176.772 96.4992 176.679Z" fill="white"/>
<path d="M97.4937 177.167C97.612 177.035 97.756 176.929 97.9169 176.855C98.0777 176.781 98.252 176.741 98.4291 176.737C98.6061 176.733 98.7821 176.765 98.9462 176.831C99.1103 176.898 99.259 176.998 99.3832 177.124C99.4634 177.216 99.6116 177.062 99.5314 176.969C98.9633 176.352 98.0432 176.432 97.3455 177.043C97.2405 177.136 97.3887 177.26 97.4937 177.167Z" fill="white"/>
<path d="M98.519 177.661C98.6382 177.53 98.7831 177.424 98.9447 177.35C99.1063 177.277 99.2813 177.237 99.4588 177.234C99.6363 177.23 99.8127 177.263 99.9771 177.33C100.141 177.397 100.29 177.497 100.415 177.624C100.495 177.711 100.643 177.556 100.563 177.47C99.9947 176.852 99.0747 176.926 98.377 177.538C98.272 177.63 98.4202 177.754 98.519 177.661Z" fill="white"/>
<path d="M114.348 126.351C110.642 139.938 98.1915 169.274 98.1915 169.274L92.281 168.249C92.281 168.249 98.457 137.702 101.273 124.177C103.83 111.967 106.64 83.9215 107.548 75.5715L127.373 77.3564C126.317 84.5082 117.424 115.092 114.348 126.351Z" fill="#263238"/>
<path d="M91.7313 168.366L98.667 169.577L99.5564 167.452L91.8363 166.044L91.7313 168.366Z" fill="#043D12"/>
<path d="M106.393 75.5714C106.313 76.4422 108.092 78.4 108.962 78.4371L139.737 78.9744C140.664 79.0176 141.751 78.3568 141.72 77.4551C141.405 66.5421 138.86 29.0042 138.014 26.6388C136.958 23.7299 131.103 22.68 128.547 22.4515C124.508 22.1789 120.455 22.1789 116.417 22.4515C114.447 22.5441 112.649 22.717 111.155 22.9023C110.617 22.9685 110.099 23.1424 109.63 23.4136C109.161 23.6848 108.752 24.0478 108.427 24.4808C108.102 24.9138 107.867 25.4079 107.738 25.9337C107.608 26.4594 107.585 27.0059 107.672 27.5405C108.336 31.7172 108.769 35.9275 108.969 40.1519C108.969 40.3619 108.969 40.5596 108.969 40.7695C109.036 42.19 109.104 43.592 109.111 44.9816C109.111 45.2533 109.111 45.5374 109.111 45.8092C108.999 59.909 107.165 66.8324 106.393 75.5714Z" fill="white"/>
<path d="M118.64 79.1165C114.527 79.3697 103.639 79.1165 103.639 77.3996C103.639 74.5339 107.554 54.715 107.925 50.75C107.98 50.1324 108.036 49.3234 108.098 48.3414C108.203 46.4886 108.308 44.1479 108.407 41.6033C108.709 33.6733 108.956 24.0387 108.956 24.0387C108.956 24.0387 109.197 21.8586 118.77 22.3218C118.77 22.3218 121.154 33.9574 121.24 44.1973C121.327 54.4371 120.042 79.03 118.64 79.1165Z" fill="#043D12"/>
<path d="M128.522 22.4515C128.522 22.4515 132.74 33.6116 132.277 50.5154C131.814 67.4191 131.604 79.728 131.604 79.728C131.604 79.728 141.708 80.3456 142.591 78.8448C143.067 78.0234 141.899 63.2812 141.232 54.641C140.473 44.8026 138.947 28.6461 138.373 26.7068C137.397 23.3532 128.522 22.4515 128.522 22.4515Z" fill="#043D12"/>
<path d="M178.597 19.6848C175.633 22.2911 172.607 24.7924 169.475 27.2011C167.919 28.4363 166.326 29.585 164.701 30.7523C163.886 31.3328 163.058 31.8948 162.2 32.463C161.341 33.0312 160.477 33.5809 159.39 34.1429C158.722 34.4921 158.015 34.7616 157.284 34.9458C156.633 35.1005 155.973 35.2099 155.307 35.2731C154.171 35.3832 153.028 35.4183 151.886 35.3781C149.797 35.2863 147.715 35.0801 145.648 34.7605C143.9 34.5073 142.19 34.1985 140.491 33.8465L139.312 33.5932C137.459 33.1918 135.655 32.7286 133.815 32.2098L135.631 24.181C137.517 24.8524 139.454 25.3708 141.424 25.7312C143.277 26.145 145.129 26.534 146.951 26.8737C148.773 27.2134 150.601 27.4913 152.331 27.6704C153.137 27.7556 153.947 27.7948 154.758 27.7878C155.066 27.7819 155.373 27.7592 155.678 27.7198C155.892 27.6939 156.1 27.6356 156.296 27.5469C156.981 27.2752 157.821 26.8552 158.63 26.4352C159.439 26.0153 160.279 25.5397 161.101 25.0827C162.774 24.1686 164.442 23.1866 166.122 22.2294C169.469 20.2839 172.86 18.3323 176.25 16.4177L178.597 19.6848Z" fill="#043D12"/>
<path opacity="0.2" d="M140.491 33.8701L139.312 33.617L138.694 29.2329L140.491 33.8701Z" fill="black"/>
<path d="M183.377 12.0449C183.377 12.0449 183.926 13.8603 183.519 14.8235C183.111 15.7868 181.185 16.2684 181.185 16.2684C181.185 16.2684 182.253 13.2799 183.377 12.0449Z" fill="#BD905B"/>
<path opacity="0.2" d="M183.377 12.0449C183.377 12.0449 183.926 13.8603 183.519 14.8235C183.111 15.7868 181.185 16.2684 181.185 16.2684C181.185 16.2684 182.253 13.2799 183.377 12.0449Z" fill="black"/>
<path d="M183.174 13.7496C182.469 14.4013 181.886 15.1729 181.451 16.0286C182.365 16.3312 183.847 15.5901 184.181 15.9606C184.514 16.3312 183.563 16.9612 182.074 17.7023C181.29 18.079 181.018 18.9745 179.975 19.3389C179.526 19.4959 179.065 19.6178 178.597 19.7033C177.449 19.271 176.207 16.4424 176.207 16.4424L178.949 14.3487C178.949 14.3487 181.475 12.428 182.544 12.045C183.612 11.6621 186.398 9.84638 186.589 10.3096C186.861 10.9581 184.965 12.428 183.174 13.7496Z" fill="#BD905B"/>
<path opacity="0.2" d="M113.57 34.804L108.104 48.3418C108.209 46.489 108.314 44.1483 108.413 41.6038L113.57 34.804Z" fill="black"/>
<path d="M128.886 1.32348C127.768 1.03751 126.602 0.984794 125.462 1.1686C124.322 1.35242 123.232 1.76883 122.26 2.39194C120.987 3.2257 119.925 4.41767 120.117 6.01726C120.64 9.34822 121.349 12.6473 122.241 15.8989L134.297 8.54325C134.297 8.54325 136.094 6.34459 133.296 3.41715C132.394 2.49692 130.56 1.73727 128.886 1.32348Z" fill="#263238"/>
<path d="M127.762 24.5823C127.588 23.8106 127.546 23.0149 127.639 22.2292L128.226 20.0738V20.0305L124.724 16.2014L122.315 13.5519C122.451 16.3373 121.605 19.7279 120.598 22.6306C120.777 23.9214 126.848 27.38 127.762 24.5823Z" fill="#BD905B"/>
<g opacity="0.2">
<path d="M128.226 20.0741L127.639 22.2295C126.311 21.6119 124.928 20.2902 124.619 18.8697C124.403 17.8445 124.872 16.8934 125.286 16.844L128.226 20.0741Z" fill="black"/>
</g>
<path d="M133.648 15.5962C133.518 16.0656 133.37 16.5226 133.216 16.9796C131.845 20.994 126.879 21.3028 123.81 18.3322C123.534 18.0607 123.278 17.7697 123.044 17.4613C121.098 14.8612 121.605 12.8787 121.938 8.3764C122.009 7.33171 122.344 6.32217 122.912 5.44263C123.481 4.5631 124.263 3.84245 125.186 3.34843C126.109 2.8544 127.143 2.60321 128.19 2.61845C129.237 2.6337 130.263 2.91488 131.171 3.43559C134.914 5.57867 134.945 10.9086 133.648 15.5962Z" fill="#BD905B"/>
<path d="M125.304 5.46755C125.304 5.46755 129.665 8.73466 134.729 7.24624C137.298 6.49277 136.866 1.22462 134.846 0.205577C133.197 -0.628186 131.857 1.39755 131.857 1.39755C130.204 0.493459 128.325 0.0879967 126.447 0.230282C123.05 0.378506 121.642 2.3363 121.642 2.3363C121.131 2.32332 120.63 2.48163 120.219 2.78603C119.809 3.09043 119.512 3.52345 119.375 4.01618C118.918 5.56636 120.611 8.52468 120.611 8.52468L125.304 5.46755Z" fill="#263238"/>
<path d="M129.14 10.7542C129.09 11.1061 129.238 11.4149 129.467 11.4458C129.695 11.4766 129.924 11.2173 129.973 10.8653C130.023 10.5134 129.874 10.2046 129.64 10.1738C129.405 10.1429 129.189 10.4022 129.14 10.7542Z" fill="#263238"/>
<path d="M130.8 16.3676H130.924C130.959 16.363 130.991 16.3449 131.013 16.3173C131.034 16.2896 131.045 16.2545 131.041 16.2194C131.04 16.2018 131.035 16.1846 131.026 16.169C131.018 16.1534 131.006 16.1397 130.992 16.1287C130.979 16.1177 130.963 16.1097 130.946 16.1051C130.928 16.1005 130.911 16.0995 130.893 16.1021C130.632 16.1249 130.369 16.0944 130.12 16.0127C129.871 15.9309 129.641 15.7994 129.444 15.6263C129.247 15.4531 129.088 15.2419 128.975 15.0053C128.862 14.7687 128.798 14.5116 128.787 14.2497C128.786 14.2321 128.781 14.2149 128.772 14.1993C128.764 14.1837 128.753 14.17 128.739 14.159C128.725 14.148 128.709 14.14 128.692 14.1354C128.675 14.1308 128.657 14.1298 128.639 14.1324C128.604 14.137 128.572 14.1551 128.551 14.1827C128.529 14.2104 128.518 14.2455 128.522 14.2806C128.554 14.8571 128.81 15.3983 129.236 15.7883C129.662 16.1783 130.223 16.3863 130.8 16.3676Z" fill="#263238"/>
<path d="M121.87 8.78399C121.87 8.78399 123.229 8.8581 123.279 10.0192C123.328 11.1803 123.211 11.3347 123.211 11.3347L124.86 11.452C124.86 11.452 123.933 7.97493 125.1 8.03669C126.268 8.09845 124.563 5.5354 126.175 5.07838C127.898 4.59047 132.351 4.38666 134.087 7.11646C133.759 5.46524 132.839 3.99101 131.499 2.97235C129.362 1.51481 125.051 1.18748 123.297 3.29968C121.543 5.41188 121.87 8.78399 121.87 8.78399Z" fill="#263238"/>
<path d="M119.604 11.0815C119.775 12.2063 120.383 13.2182 121.296 13.8977C122.531 14.7809 123.643 13.8174 123.766 12.3908C123.853 11.1123 123.328 9.11131 121.913 8.79016C121.599 8.72637 121.274 8.74189 120.968 8.83531C120.661 8.92874 120.383 9.09712 120.158 9.32522C119.933 9.55332 119.768 9.83393 119.679 10.1417C119.59 10.4494 119.579 10.7745 119.647 11.0876" fill="#BD905B"/>
<path d="M132.765 11.174C132.715 11.5259 132.864 11.8347 133.092 11.8656C133.32 11.8964 133.549 11.6371 133.598 11.2851C133.648 10.9332 133.493 10.6244 133.265 10.5936C133.036 10.5627 132.808 10.822 132.765 11.174Z" fill="#263238"/>
<path d="M134.08 10.3157C134.05 10.3089 134.023 10.2945 134 10.274C133.977 10.2534 133.96 10.2274 133.95 10.1984C133.925 10.0687 133.871 9.94622 133.794 9.83952C133.716 9.73282 133.615 9.64454 133.5 9.58093C133.267 9.48046 133.007 9.46515 132.765 9.53771C132.742 9.54549 132.719 9.54879 132.695 9.54741C132.672 9.54603 132.649 9.54 132.627 9.52967C132.606 9.51934 132.587 9.50491 132.572 9.48722C132.556 9.46952 132.544 9.44891 132.536 9.42656C132.522 9.38149 132.526 9.33274 132.546 9.29027C132.567 9.24781 132.603 9.21484 132.647 9.1981C132.981 9.09446 133.341 9.11642 133.66 9.25984C133.812 9.34355 133.945 9.45738 134.051 9.59435C134.157 9.73132 134.234 9.88855 134.278 10.0564C134.285 10.0787 134.288 10.1022 134.286 10.1257C134.284 10.1492 134.278 10.172 134.267 10.1928C134.256 10.2136 134.241 10.232 134.222 10.2467C134.204 10.2615 134.183 10.2724 134.16 10.2787C134.137 10.2983 134.11 10.3111 134.08 10.3157Z" fill="#263238"/>
<path d="M128.207 9.75357C128.183 9.75912 128.157 9.75912 128.133 9.75357C128.111 9.74486 128.091 9.73173 128.074 9.71501C128.058 9.69828 128.045 9.6783 128.036 9.65631C128.027 9.63432 128.023 9.61078 128.024 9.58715C128.025 9.56352 128.03 9.5403 128.04 9.51893C128.191 9.20437 128.449 8.95449 128.769 8.815C128.935 8.75976 129.11 8.73894 129.284 8.7538C129.458 8.76866 129.628 8.81891 129.782 8.90146C129.803 8.9114 129.823 8.92556 129.839 8.94311C129.855 8.96067 129.867 8.98126 129.876 9.00369C129.884 9.02612 129.887 9.04993 129.886 9.07372C129.885 9.09752 129.879 9.12082 129.868 9.14227C129.858 9.16339 129.843 9.18223 129.825 9.1977C129.807 9.21318 129.787 9.22499 129.764 9.23245C129.742 9.2399 129.718 9.24287 129.695 9.24117C129.671 9.23947 129.648 9.23314 129.627 9.22254C129.517 9.16266 129.395 9.12578 129.27 9.11411C129.145 9.10243 129.018 9.11622 128.899 9.15462C128.665 9.25458 128.476 9.43697 128.368 9.66712C128.351 9.69415 128.327 9.71631 128.299 9.73146C128.271 9.74661 128.239 9.75422 128.207 9.75357Z" fill="#263238"/>
<path d="M131.153 11.2297C131.58 12.2047 131.947 13.2048 132.252 14.2245C132.308 14.6444 130.986 14.632 130.986 14.632L131.153 11.2297Z" fill="#FF5652"/>
<path d="M107.987 25.0146C105.905 28.6337 103.948 32.327 102.039 36.0388C101.076 37.8916 100.143 39.7444 99.1982 41.5972L97.8085 44.3764L97.1168 45.7351L96.771 46.396L96.6104 46.7048C96.5692 46.7831 96.5321 46.8635 96.4992 46.9456L96.4066 47.168L96.3387 47.3409L96.2275 47.6682L96.141 47.9585C95.931 48.6873 95.8199 49.2616 95.7087 49.8422C95.5975 50.4227 95.5111 50.9662 95.4246 51.5159C95.2579 52.609 95.1158 53.6713 94.9985 54.7398C94.7576 56.8705 94.5476 58.9765 94.3809 61.0887C94.0597 65.3069 93.8312 69.5066 93.7633 73.7434C93.7559 74.3236 93.9615 74.8865 94.3412 75.3253C94.7209 75.7641 95.2484 76.0485 95.8237 76.1246C96.3989 76.2007 96.9822 76.0632 97.4629 75.7382C97.9437 75.4132 98.2886 74.9232 98.4323 74.361C99.439 70.3033 100.353 66.2148 101.273 62.1633C101.749 60.1438 102.194 58.118 102.675 56.1294C102.922 55.135 103.157 54.1469 103.41 53.1958C103.534 52.714 103.663 52.2447 103.799 51.8062C103.911 51.4165 104.043 51.0331 104.195 50.6574C104.205 50.6296 104.217 50.6027 104.232 50.5771C104.232 50.5771 104.232 50.5339 104.232 50.5401V50.5833V50.6451C104.211 50.6915 104.189 50.7369 104.164 50.7809L104.225 50.6821L104.349 50.4907L104.59 50.1139L105.442 48.7367L107.091 46.0377C108.166 44.2282 109.24 42.4248 110.278 40.609C112.372 36.9775 114.404 33.3213 116.306 29.5848C116.785 28.4953 116.839 27.2658 116.457 26.1385C116.075 25.0113 115.284 24.068 114.241 23.4946C113.198 22.9211 111.978 22.7591 110.822 23.0405C109.665 23.3218 108.656 24.0261 107.993 25.0146H107.987Z" fill="#043D12"/>
<path d="M88.5011 85.5388V81.6672C88.5011 81.6034 88.5265 81.5421 88.5717 81.497C88.6168 81.4518 88.6781 81.4264 88.742 81.4264H90.8475V80.809H88.7481C88.5189 80.809 88.299 80.9 88.1369 81.0622C87.9747 81.2243 87.8837 81.4442 87.8837 81.6734V85.5388H88.5011Z" fill="#263238"/>
<path d="M103.021 81.6361V85.5385H103.638V81.6669C103.638 81.4377 103.547 81.2178 103.385 81.0557C103.223 80.8936 103.003 80.8025 102.774 80.8025H100.674V81.42H102.774C102.834 81.4195 102.893 81.4412 102.938 81.4811C102.984 81.5209 103.013 81.5761 103.021 81.6361Z" fill="#263238"/>
<path d="M111.878 87.1453V106.662C111.878 107.097 111.705 107.515 111.397 107.823C111.089 108.131 110.671 108.304 110.235 108.304H82.0662C81.631 108.303 81.214 108.129 80.9063 107.821C80.5986 107.514 80.425 107.097 80.4233 106.662V87.1453C80.425 86.7107 80.5988 86.2944 80.9067 85.9877C81.2146 85.6809 81.6315 85.5087 82.0662 85.5087H110.235C110.45 85.5079 110.664 85.5496 110.863 85.6315C111.062 85.7134 111.244 85.8338 111.396 85.9859C111.549 86.1379 111.67 86.3186 111.753 86.5176C111.835 86.7165 111.878 86.9299 111.878 87.1453Z" fill="#263238"/>
<g opacity="0.5">
<path d="M111.878 87.1453V106.662C111.878 107.097 111.705 107.515 111.397 107.823C111.089 108.131 110.671 108.304 110.235 108.304H82.0662C81.631 108.303 81.214 108.129 80.9063 107.821C80.5986 107.514 80.425 107.097 80.4233 106.662V87.1453C80.425 86.7107 80.5988 86.2944 80.9067 85.9877C81.2146 85.6809 81.6315 85.5087 82.0662 85.5087H110.235C110.45 85.5079 110.664 85.5496 110.863 85.6315C111.062 85.7134 111.244 85.8338 111.396 85.9859C111.549 86.1379 111.67 86.3186 111.753 86.5176C111.835 86.7165 111.878 86.9299 111.878 87.1453Z" fill="white"/>
</g>
<path d="M107.746 85.5087H106.498V108.304H107.746V85.5087Z" fill="#263238"/>
<path d="M85.8086 85.5087H84.561V108.304H85.8086V85.5087Z" fill="#263238"/>
<path d="M98.0371 75.1763C98.0371 75.1763 100.05 79.7218 99.8282 80.7347C99.6058 81.7476 98.2409 79.8639 98.2409 79.8639L98.0371 75.1763Z" fill="#BD905B"/>
<path d="M101.323 80.043H89.9775V82.1243H101.323V80.043Z" fill="#263238"/>
<path opacity="0.3" d="M101.323 80.043H89.9775V82.1243H101.323V80.043Z" fill="white"/>
<path d="M93.8991 74.4847L92.3304 79.1167C92.0154 80.4383 96.2892 82.3714 97.9382 81.2289C99.2413 80.3334 98.1173 74.9602 98.1173 74.9602C97.5053 74.5452 96.8016 74.285 96.0668 74.2022C95.332 74.1194 94.5881 74.2163 93.8991 74.4847Z" fill="#BD905B"/>
<path d="M92.3306 79.1166C92.0033 80.5926 92.1947 83.483 94.554 83.7856C95.0688 83.8689 95.5927 83.8793 96.1103 83.8165C96.575 84.0116 97.0895 84.0549 97.5802 83.94C98.766 83.5633 98.3275 80.5803 98.3275 80.5803L92.3306 79.1166Z" fill="#BD905B"/>
<path d="M121.327 20.3764C121.327 20.3764 117.967 19.6599 117.238 22.4515V31.6723L119.171 34.0871L117.646 35.6064L117.603 47.4582L121.172 48.6934C121.247 45.3954 121.79 39.4788 120.962 30.7274C120.655 27.2753 120.778 23.7983 121.327 20.3764Z" fill="#043D12"/>
<path opacity="0.3" d="M121.327 20.3764C121.327 20.3764 117.967 19.6599 117.238 22.4515V31.6723L119.171 34.0871L117.646 35.6064L117.603 47.4582L121.172 48.6934C121.247 45.3954 121.79 39.4788 120.962 30.7274C120.655 27.2753 120.778 23.7983 121.327 20.3764Z" fill="black"/>
<path d="M127.639 22.2294C127.639 22.2294 129.214 23.829 129.998 27.4852C130.782 31.1415 132.37 47.1312 132.32 49.1631L135.853 46.5136L134.42 33.8157L132.326 32.5187L134.087 30.2089C134.087 30.2089 132.468 24.3787 131.425 22.8903C130.381 21.4019 127.966 21.0375 127.966 21.0375L127.639 22.2294Z" fill="#043D12"/>
<path opacity="0.3" d="M127.639 22.2294C127.639 22.2294 129.214 23.829 129.998 27.4852C130.782 31.1415 132.37 47.1312 132.32 49.1631L135.853 46.5136L134.42 33.8157L132.326 32.5187L134.087 30.2089C134.087 30.2089 132.468 24.3787 131.425 22.8903C130.381 21.4019 127.966 21.0375 127.966 21.0375L127.639 22.2294Z" fill="black"/>
</svg>
