<svg width="22" height="22" viewBox="0 0 22 22" fill="none" xmlns="http://www.w3.org/2000/svg">
<path d="M21.9996 16C21.9996 19.31 19.3096 22 15.9996 22V20.5C18.4996 20.5 20.4996 18.5 20.4996 16H21.9996ZM-0.000371158 6C-0.000371158 2.69 2.68963 0 5.99963 0V1.5C3.49963 1.5 1.49963 3.5 1.49963 6H-0.000371158ZM6.99963 3.32L2.40963 7.92C-0.810371 11.14 -0.810371 16.37 2.40963 19.59C5.62963 22.81 10.8596 22.81 14.0796 19.59L21.1496 12.5C21.6396 12.03 21.6396 11.24 21.1496 10.75C21.0335 10.6336 20.8956 10.5412 20.7437 10.4782C20.5918 10.4152 20.429 10.3828 20.2646 10.3828C20.1002 10.3828 19.9374 10.4152 19.7855 10.4782C19.6337 10.5412 19.4957 10.6336 19.3796 10.75L14.9596 15.17L14.2496 14.46L20.7896 7.92C21.2796 7.43 21.2796 6.64 20.7896 6.15C20.2996 5.66 19.4996 5.66 18.9996 6.15L13.1896 12L12.4996 11.27L19.3696 4.38C19.8596 3.89 19.8596 3.1 19.3696 2.61C18.8796 2.12 18.0896 2.12 17.5996 2.61L10.7096 9.5L9.99963 8.8L15.4996 3.32C15.9996 2.83 15.9996 2.04 15.4996 1.55C14.9996 1.06 14.2196 1.06 13.7296 1.55L6.10963 9.17C6.70689 9.93938 7.00291 10.9002 6.94215 11.8723C6.8814 12.8444 6.46804 13.761 5.77963 14.45L5.06963 13.74C5.63143 13.1775 5.94699 12.415 5.94699 11.62C5.94699 10.825 5.63143 10.0625 5.06963 9.5L4.71963 9.15L8.78963 5.08C9.27963 4.59 9.27963 3.8 8.78963 3.31C8.28963 2.83 7.49963 2.83 6.99963 3.32Z" fill="#FFCF00"/>
</svg>
