<svg width="154" height="207" viewBox="0 0 154 207" fill="none" xmlns="http://www.w3.org/2000/svg">
<path d="M97.1883 173.167H12.9084C11.5531 173.148 10.2552 172.617 9.27502 171.681C8.2948 170.744 7.70473 169.472 7.62318 168.119L0.0652767 21.7511C0.0233753 21.1 0.116411 20.4474 0.338557 19.8339C0.560704 19.2205 0.90717 18.6596 1.35624 18.1863C1.8053 17.7131 2.34729 17.3377 2.94822 17.0837C3.54915 16.8297 4.19607 16.7026 4.84842 16.7103H89.1283C90.483 16.7279 91.7809 17.2573 92.7612 18.1924C93.7416 19.1274 94.3319 20.3988 94.4136 21.7511L101.958 168.119C102 168.77 101.907 169.422 101.686 170.034C101.465 170.647 101.12 171.208 100.672 171.682C100.225 172.155 99.6842 172.531 99.0849 172.787C98.4855 173.042 97.8399 173.172 97.1883 173.167Z" fill="#043D12"/>
<path opacity="0.8" d="M97.1883 173.167H12.9084C11.5531 173.148 10.2552 172.617 9.27502 171.681C8.2948 170.744 7.70473 169.472 7.62318 168.119L0.0652767 21.7511C0.0233753 21.1 0.116411 20.4474 0.338557 19.8339C0.560704 19.2205 0.90717 18.6596 1.35624 18.1863C1.8053 17.7131 2.34729 17.3377 2.94822 17.0837C3.54915 16.8297 4.19607 16.7026 4.84842 16.7103H89.1283C90.483 16.7279 91.7809 17.2573 92.7612 18.1924C93.7416 19.1274 94.3319 20.3988 94.4136 21.7511L101.958 168.119C102 168.77 101.907 169.422 101.686 170.034C101.465 170.647 101.12 171.208 100.672 171.682C100.225 172.155 99.6842 172.531 99.0849 172.787C98.4855 173.042 97.8399 173.172 97.1883 173.167Z" fill="white"/>
<path d="M80.8107 11.9403H71.4888V12.601H80.8107V11.9403Z" fill="#043D12"/>
<path d="M68.2582 11.9403H64.8426V12.601H68.2582V11.9403Z" fill="#043D12"/>
<path d="M100.815 163.878H20.2153C18.9173 163.865 17.6723 163.362 16.7309 162.468C15.7895 161.574 15.2216 160.357 15.1414 159.062L7.92706 19.0689C7.88697 18.4458 7.97605 17.8211 8.18872 17.2341C8.40138 16.6471 8.73305 16.1103 9.16292 15.6575C9.59278 15.2047 10.1116 14.8456 10.6867 14.6027C11.2619 14.3598 11.8811 14.2384 12.5054 14.2461H93.1055C94.4033 14.2604 95.6476 14.7659 96.5878 15.6607C97.5279 16.5555 98.0942 17.7733 98.1727 19.0689L105.387 159.062C105.427 159.684 105.338 160.308 105.126 160.894C104.914 161.48 104.582 162.016 104.153 162.469C103.724 162.921 103.206 163.279 102.631 163.522C102.057 163.764 101.439 163.886 100.815 163.878Z" fill="#043D12"/>
<path d="M100.815 160.661H20.2153C19.7426 160.644 19.2923 160.455 18.9501 160.129C18.6078 159.802 18.3974 159.361 18.3588 158.89L11.1378 18.9036C11.1215 18.7174 11.1448 18.5298 11.2063 18.3533C11.2678 18.1768 11.3661 18.0153 11.4946 17.8796C11.6235 17.7441 11.7796 17.6376 11.9527 17.567C12.1258 17.4964 12.312 17.4633 12.4988 17.47H93.0988C93.5704 17.4878 94.019 17.6778 94.3599 18.0041C94.7007 18.3303 94.9102 18.7702 94.9487 19.2405L102.203 159.227C102.219 159.412 102.195 159.599 102.134 159.775C102.072 159.951 101.975 160.112 101.847 160.247C101.719 160.383 101.564 160.489 101.392 160.561C101.22 160.632 101.034 160.666 100.848 160.661H100.815ZM12.4988 17.6351C12.3345 17.6298 12.171 17.6588 12.0186 17.7202C11.8661 17.7816 11.7282 17.8742 11.6135 17.9919C11.5032 18.1139 11.4188 18.257 11.3655 18.4126C11.3121 18.5682 11.2908 18.7329 11.303 18.897L18.5174 158.883C18.5541 159.312 18.7464 159.713 19.0579 160.01C19.3694 160.306 19.7786 160.479 20.2087 160.495H100.809C100.972 160.502 101.135 160.473 101.287 160.412C101.438 160.35 101.575 160.257 101.687 160.139C101.8 160.018 101.886 159.876 101.94 159.719C101.994 159.563 102.013 159.398 101.998 159.234L94.7901 19.2471C94.7549 18.8189 94.564 18.4185 94.2536 18.1215C93.9432 17.8245 93.5348 17.6514 93.1054 17.6351H12.4988Z" fill="white"/>
<path opacity="0.3" d="M72.623 68.4897C81.7903 59.0824 81.1934 43.6325 71.2896 33.9813C61.3858 24.3301 45.9257 24.1324 36.7583 33.5396C27.591 42.9469 28.1879 58.3968 38.0917 68.048C47.9955 77.6992 63.4556 77.8969 72.623 68.4897Z" fill="white"/>
<path d="M74.4551 51.0181C74.64 54.2647 73.9871 57.5043 72.5591 60.4259C71.0132 63.5595 68.6135 66.1926 65.6365 68.0218C62.6594 69.8511 59.2261 70.802 55.7322 70.7651C52.1113 70.7325 48.5605 69.7631 45.4254 67.9513C42.2903 66.1395 39.6776 63.5469 37.8416 60.4259C36.1305 57.5718 35.1459 54.3414 34.9743 51.0181C34.8115 48.4695 35.1763 45.9146 36.0462 43.5135C36.9161 41.1124 38.2722 38.9166 40.0296 37.0636C41.7871 35.2107 43.9081 33.7404 46.2599 32.7448C48.6117 31.7493 51.1436 31.2498 53.6973 31.2777C59.0123 31.3331 64.1089 33.4004 67.9606 37.0634C71.8123 40.7263 74.1329 45.7126 74.4551 51.0181Z" fill="white"/>
<path d="M72.5392 60.4258C70.9934 63.5594 68.5937 66.1925 65.6166 68.0218C62.6396 69.851 59.2063 70.802 55.7123 70.7651C52.0915 70.7324 48.5407 69.7631 45.4056 67.9512C42.2705 66.1394 39.6578 63.5468 37.8218 60.4258C42.8422 56.9586 48.805 55.1139 54.9063 55.1405C61.1708 55.1641 67.2946 56.9997 72.5392 60.4258Z" fill="#FFCF00"/>
<path d="M60.8108 50.559C64.1136 47.1698 63.8974 41.6024 60.3278 38.1239C56.7583 34.6454 51.1872 34.573 47.8844 37.9623C44.5816 41.3515 44.7978 46.9189 48.3674 50.3974C51.9369 53.8759 57.508 53.9483 60.8108 50.559Z" fill="#FFCF00"/>
<path d="M89.2605 109.413H26.148C25.5983 109.408 25.0711 109.194 24.6727 108.815C24.2743 108.436 24.0343 107.921 24.0009 107.372L23.5252 98.1227C23.5088 97.8596 23.5469 97.596 23.6371 97.3483C23.7272 97.1006 23.8676 96.8741 24.0493 96.6831C24.231 96.4922 24.4501 96.3407 24.693 96.2383C24.9359 96.1359 25.1973 96.0847 25.4609 96.0879H88.5734C89.122 96.0935 89.6483 96.3063 90.0465 96.6837C90.4447 97.0611 90.6855 97.5752 90.7205 98.1227L91.1962 107.372C91.2135 107.636 91.1761 107.9 91.0864 108.148C90.9966 108.397 90.8565 108.624 90.6747 108.816C90.4929 109.008 90.2734 109.16 90.03 109.262C89.7867 109.365 89.5247 109.417 89.2605 109.413Z" fill="white"/>
<path opacity="0.3" d="M69.9363 90.981H43.5761C43.0241 90.9769 42.4945 90.763 42.0945 90.3826C41.6945 90.0023 41.4542 89.484 41.4223 88.933L41.3232 86.951C41.3059 86.6874 41.3433 86.423 41.433 86.1745C41.5228 85.926 41.663 85.6988 41.8448 85.5071C42.0265 85.3153 42.246 85.1633 42.4894 85.0605C42.7328 84.9576 42.9948 84.9063 43.259 84.9096H69.6125C70.1622 84.9152 70.6894 85.129 71.0878 85.5078C71.4862 85.8866 71.7263 86.4023 71.7597 86.951L71.8654 88.933C71.8816 89.1961 71.8438 89.4598 71.7541 89.7078C71.6645 89.9557 71.525 90.1827 71.3442 90.3746C71.1634 90.5665 70.9452 90.7194 70.703 90.8237C70.4609 90.9279 70.1999 90.9815 69.9363 90.981Z" fill="black"/>
<path opacity="0.3" d="M79.7404 153.882H40.253C39.3179 153.871 38.4218 153.506 37.7443 152.862C37.0667 152.217 36.6578 151.341 36.5996 150.407L36.3683 145.849C36.345 145.401 36.4132 144.953 36.5687 144.532C36.7242 144.111 36.9638 143.726 37.2729 143.401C37.582 143.076 37.9541 142.817 38.3665 142.641C38.7789 142.464 39.223 142.373 39.6716 142.374H79.1458C80.0808 142.385 80.977 142.75 81.6545 143.394C82.3321 144.039 82.741 144.916 82.7992 145.849L83.0305 150.407C83.0537 150.854 82.986 151.301 82.8312 151.721C82.6765 152.141 82.4381 152.525 82.1304 152.85C81.8227 153.175 81.4522 153.434 81.0414 153.612C80.6305 153.789 80.1879 153.881 79.7404 153.882Z" fill="black"/>
<path d="M90.4166 131.783H27.2975C26.7483 131.776 26.222 131.562 25.8239 131.183C25.4258 130.805 25.1853 130.29 25.1504 129.742L24.6747 120.493C24.6584 120.229 24.6965 119.965 24.7866 119.717C24.8767 119.469 25.0169 119.242 25.1985 119.051C25.3801 118.859 25.5991 118.707 25.8421 118.604C26.085 118.501 26.3465 118.449 26.6104 118.451H89.7229C90.2726 118.457 90.7997 118.671 91.1982 119.049C91.5966 119.428 91.8366 119.944 91.87 120.493L92.3523 129.742C92.3677 130.005 92.3289 130.269 92.2384 130.516C92.148 130.764 92.0077 130.99 91.8263 131.182C91.6449 131.373 91.4262 131.525 91.1838 131.628C90.9413 131.732 90.6802 131.785 90.4166 131.783Z" fill="white"/>
<path d="M34.1551 102.747C34.1733 103.039 34.1311 103.332 34.0311 103.607C33.9311 103.882 33.7755 104.133 33.574 104.345C33.3725 104.557 33.1294 104.725 32.86 104.839C32.5905 104.953 32.3005 105.01 32.008 105.007C31.4003 105 30.8179 104.763 30.3779 104.343C29.9379 103.924 29.6729 103.354 29.6362 102.747C29.6171 102.456 29.6584 102.163 29.7577 101.888C29.8569 101.614 30.0119 101.362 30.2129 101.15C30.4138 100.938 30.6565 100.77 30.9256 100.656C31.1948 100.542 31.4845 100.485 31.7768 100.488C32.3851 100.495 32.9683 100.732 33.4094 101.151C33.8504 101.57 34.1168 102.14 34.1551 102.747Z" fill="#FFCF00"/>
<path d="M41.1118 102.747C41.131 103.039 41.0896 103.331 40.9904 103.606C40.8912 103.881 40.7362 104.133 40.5352 104.345C40.3342 104.557 40.0916 104.725 39.8224 104.839C39.5533 104.953 39.2635 105.01 38.9713 105.007C38.3632 105.001 37.7799 104.765 37.3396 104.345C36.8992 103.926 36.6347 103.355 36.5996 102.747C36.5804 102.456 36.6218 102.163 36.721 101.888C36.8202 101.614 36.9752 101.362 37.1762 101.15C37.3772 100.938 37.6198 100.77 37.889 100.656C38.1581 100.542 38.4479 100.485 38.7401 100.488C39.3482 100.494 39.9315 100.73 40.3718 101.15C40.8122 101.569 41.0767 102.14 41.1118 102.747Z" fill="#FFCF00"/>
<path d="M48.0289 102.747C48.048 103.039 48.0067 103.331 47.9075 103.606C47.8082 103.881 47.6533 104.133 47.4523 104.345C47.2513 104.557 47.0086 104.725 46.7395 104.839C46.4704 104.953 46.1806 105.01 45.8884 105.007C45.28 105 44.6969 104.763 44.2558 104.344C43.8147 103.925 43.5483 103.355 43.51 102.747C43.4918 102.455 43.534 102.163 43.634 101.888C43.734 101.613 43.8896 101.362 44.0911 101.15C44.2926 100.938 44.5357 100.769 44.8052 100.656C45.0746 100.542 45.3647 100.485 45.6572 100.488C46.2648 100.495 46.8472 100.732 47.2872 101.151C47.7272 101.571 47.9922 102.141 48.0289 102.747Z" fill="#FFCF00"/>
<path d="M54.9988 102.747C55.017 103.039 54.9749 103.331 54.8753 103.605C54.7757 103.88 54.6207 104.131 54.4199 104.343C54.2191 104.555 53.9769 104.723 53.7082 104.837C53.4395 104.951 53.1502 105.009 52.8583 105.007C52.2499 105 51.6668 104.763 51.2257 104.344C50.7846 103.925 50.5182 103.354 50.4799 102.747C50.4618 102.456 50.5038 102.164 50.6034 101.889C50.703 101.615 50.858 101.364 51.0588 101.152C51.2596 100.94 51.5019 100.772 51.7705 100.657C52.0392 100.543 52.3285 100.485 52.6204 100.488C53.2288 100.495 53.812 100.732 54.253 101.151C54.6941 101.57 54.9605 102.14 54.9988 102.747Z" fill="#FFCF00"/>
<path d="M35.3245 125.104C35.3436 125.396 35.3023 125.688 35.2031 125.963C35.1038 126.238 34.9489 126.489 34.7479 126.701C34.5469 126.914 34.3042 127.082 34.0351 127.196C33.766 127.31 33.4762 127.367 33.184 127.364C32.5756 127.356 31.9924 127.12 31.5514 126.701C31.1103 126.282 30.8439 125.711 30.8056 125.104C30.7874 124.812 30.8296 124.52 30.9296 124.245C31.0296 123.97 31.1852 123.718 31.3867 123.506C31.5882 123.294 31.8313 123.126 32.1008 123.012C32.3702 122.898 32.6602 122.841 32.9527 122.845C33.5604 122.852 34.1428 123.089 34.5828 123.508C35.0228 123.927 35.2878 124.497 35.3245 125.104Z" fill="#FFCF00"/>
<path d="M42.268 125.104C42.2861 125.395 42.2441 125.687 42.1445 125.962C42.0449 126.236 41.8899 126.487 41.6891 126.699C41.4883 126.911 41.2461 127.08 40.9774 127.194C40.7087 127.308 40.4194 127.366 40.1275 127.364C39.5191 127.356 38.936 127.12 38.4949 126.701C38.0538 126.282 37.7874 125.711 37.7491 125.104C37.73 124.812 37.7713 124.52 37.8706 124.245C37.9698 123.97 38.1248 123.719 38.3257 123.507C38.5267 123.295 38.7694 123.126 39.0385 123.012C39.3077 122.898 39.5974 122.841 39.8896 122.845C40.498 122.852 41.0812 123.089 41.5222 123.508C41.9633 123.927 42.2297 124.497 42.268 125.104Z" fill="#FFCF00"/>
<path d="M49.2115 125.104C49.2296 125.396 49.1874 125.689 49.0874 125.963C48.9875 126.238 48.8318 126.49 48.6303 126.702C48.4288 126.914 48.1858 127.082 47.9163 127.196C47.6469 127.31 47.3568 127.367 47.0643 127.364C46.4562 127.358 45.8729 127.121 45.4326 126.702C44.9922 126.282 44.7277 125.711 44.6926 125.104C44.6734 124.812 44.7148 124.52 44.814 124.245C44.9132 123.97 45.0682 123.719 45.2692 123.507C45.4702 123.295 45.7129 123.126 45.982 123.012C46.2511 122.898 46.5409 122.841 46.8331 122.845C47.4414 122.852 48.0246 123.089 48.4657 123.508C48.9068 123.927 49.1732 124.497 49.2115 125.104Z" fill="#FFCF00"/>
<path d="M56.1484 125.104C56.1675 125.396 56.1262 125.688 56.0269 125.963C55.9277 126.238 55.7727 126.489 55.5718 126.701C55.3708 126.914 55.1281 127.082 54.859 127.196C54.5898 127.31 54.3001 127.367 54.0078 127.364C53.3995 127.356 52.8163 127.12 52.3753 126.701C51.9342 126.282 51.6678 125.711 51.6295 125.104C51.6113 124.812 51.6535 124.52 51.7535 124.245C51.8535 123.97 52.0091 123.718 52.2106 123.506C52.4121 123.294 52.6552 123.126 52.9246 123.012C53.1941 122.898 53.4841 122.841 53.7766 122.845C54.3848 122.85 54.968 123.087 55.4084 123.506C55.8487 123.926 56.1132 124.497 56.1484 125.104Z" fill="#FFCF00"/>
<path d="M63.0918 125.104C63.111 125.396 63.0696 125.688 62.9704 125.963C62.8712 126.238 62.7162 126.489 62.5152 126.702C62.3142 126.914 62.0716 127.082 61.8024 127.196C61.5333 127.31 61.2435 127.367 60.9513 127.364C60.343 127.356 59.7598 127.12 59.3187 126.701C58.8776 126.282 58.6113 125.711 58.573 125.104C58.5548 124.813 58.5968 124.521 58.6964 124.246C58.796 123.972 58.951 123.721 59.1518 123.509C59.3526 123.297 59.5949 123.129 59.8636 123.014C60.1322 122.9 60.4215 122.842 60.7135 122.845C61.3218 122.852 61.905 123.089 62.3461 123.508C62.7872 123.927 63.0535 124.497 63.0918 125.104Z" fill="#FFCF00"/>
<path d="M70.0353 125.104C70.0535 125.396 70.0113 125.689 69.9113 125.963C69.8113 126.238 69.6557 126.49 69.4542 126.702C69.2527 126.914 69.0096 127.082 68.7402 127.196C68.4707 127.31 68.1807 127.367 67.8882 127.364C67.2805 127.356 66.6981 127.119 66.2581 126.7C65.8181 126.281 65.5531 125.711 65.5165 125.104C65.4973 124.812 65.5387 124.52 65.6379 124.245C65.7371 123.97 65.8921 123.719 66.0931 123.507C66.2941 123.295 66.5367 123.126 66.8059 123.012C67.075 122.898 67.3648 122.841 67.657 122.845C68.2653 122.852 68.8485 123.089 69.2896 123.508C69.7307 123.927 69.997 124.497 70.0353 125.104Z" fill="#FFCF00"/>
<path d="M145.145 48.3821C145.311 48.6331 145.396 48.7653 145.502 48.9436L145.799 49.4325C145.991 49.7629 146.163 50.0932 146.328 50.4169C146.658 51.0776 146.989 51.7382 147.253 52.3989C147.807 53.711 148.283 55.0544 148.68 56.4223C149.48 59.1243 150.007 61.8997 150.252 64.7069L150.298 65.2288C150.304 65.3344 150.304 65.4403 150.298 65.5459V65.8961C150.309 66.3555 150.283 66.8151 150.219 67.2702C150.093 68.1139 149.871 68.9406 149.559 69.7345C148.978 71.1525 148.209 72.4858 147.273 73.6984C145.526 75.9357 143.452 77.8977 141.122 79.5188L139.299 77.3849C140.958 75.5109 142.427 73.4772 143.685 71.3135C144.251 70.3319 144.695 69.2847 145.007 68.1952C145.133 67.7337 145.206 67.2594 145.225 66.7814C145.245 66.5771 145.245 66.3712 145.225 66.1669V66.0282C145.231 65.9667 145.231 65.9047 145.225 65.8432L145.145 65.3808C144.721 62.9186 144.12 60.49 143.348 58.1136C142.965 56.931 142.496 55.788 142.027 54.6715C141.796 54.11 141.532 53.5616 141.267 53.0331L140.858 52.2535L140.653 51.8902L140.481 51.5995L145.145 48.3821Z" fill="#803E3C"/>
<path d="M139.001 79.532L141.393 84.586L143.289 80.3115C143.289 80.3115 141.604 76.6118 139.325 76.9554L139.001 79.532Z" fill="#7F3E3B"/>
<path d="M143.104 84.837L145.007 81.7187L143.289 80.3115L141.393 84.586L143.104 84.837Z" fill="#7F3E3B"/>
<path d="M132.348 201.39C132.843 201.378 133.335 201.311 133.815 201.192C133.839 201.185 133.861 201.171 133.879 201.152C133.896 201.134 133.908 201.111 133.914 201.086C133.918 201.061 133.915 201.035 133.904 201.011C133.894 200.988 133.876 200.968 133.855 200.954C133.663 200.829 131.985 199.745 131.338 200.036C131.266 200.069 131.204 200.121 131.159 200.186C131.114 200.251 131.087 200.327 131.08 200.406C131.06 200.525 131.069 200.648 131.107 200.763C131.145 200.878 131.211 200.982 131.298 201.066C131.598 201.298 131.971 201.413 132.348 201.39ZM133.439 201C132.481 201.199 131.754 201.165 131.457 200.908C131.396 200.848 131.351 200.773 131.327 200.691C131.303 200.609 131.3 200.522 131.318 200.439C131.318 200.326 131.384 200.293 131.43 200.274C131.787 200.115 132.758 200.584 133.439 201Z" fill="#043D12"/>
<path d="M133.782 201.192H133.848C133.868 201.179 133.884 201.161 133.896 201.141C133.907 201.12 133.914 201.097 133.914 201.073C133.914 201.007 133.914 199.415 133.306 198.88C133.232 198.813 133.144 198.762 133.048 198.733C132.952 198.703 132.851 198.695 132.751 198.708C132.647 198.709 132.546 198.745 132.466 198.811C132.385 198.877 132.33 198.969 132.309 199.071C132.183 199.699 133.187 200.888 133.716 201.192H133.782ZM132.837 198.952C132.891 198.951 132.944 198.96 132.994 198.979C133.044 198.998 133.089 199.027 133.128 199.065C133.477 199.578 133.657 200.188 133.643 200.809C133.115 200.386 132.487 199.487 132.566 199.111C132.566 199.051 132.613 198.972 132.778 198.952H132.837Z" fill="#043D12"/>
<path d="M126.112 198.695C126.127 198.675 126.137 198.652 126.141 198.627C126.144 198.603 126.141 198.578 126.132 198.555C126.122 198.532 126.107 198.512 126.087 198.497C126.067 198.482 126.044 198.473 126.019 198.47C125.748 198.47 123.377 198.358 122.835 198.939V198.979C122.79 199.036 122.761 199.104 122.751 199.175C122.74 199.247 122.749 199.321 122.775 199.388C122.811 199.502 122.873 199.605 122.957 199.689C123.041 199.773 123.144 199.835 123.258 199.871C124.024 200.108 125.378 199.243 126.118 198.708L126.112 198.695ZM123.033 199.111C123.33 198.794 124.639 198.708 125.616 198.721C124.592 199.421 123.74 199.752 123.311 199.619C123.236 199.597 123.168 199.556 123.112 199.501C123.057 199.445 123.016 199.377 122.993 199.302C122.98 199.277 122.973 199.249 122.973 199.22C122.973 199.191 122.98 199.163 122.993 199.137L123.033 199.111Z" fill="#043D12"/>
<path d="M126.112 198.694C126.122 198.674 126.127 198.651 126.127 198.628C126.127 198.605 126.122 198.583 126.112 198.562C126.079 198.509 125.339 197.241 124.467 196.977C124.342 196.94 124.21 196.929 124.081 196.945C123.951 196.961 123.826 197.003 123.714 197.069C123.397 197.254 123.377 197.472 123.416 197.611C123.588 198.225 125.273 198.767 126 198.76C126.022 198.76 126.045 198.754 126.064 198.742C126.084 198.731 126.1 198.714 126.112 198.694ZM123.74 197.373C123.777 197.336 123.82 197.305 123.866 197.281C123.947 197.229 124.039 197.195 124.135 197.183C124.231 197.17 124.328 197.179 124.421 197.208C124.995 197.36 125.53 198.1 125.775 198.463C124.989 198.377 123.793 197.895 123.694 197.525C123.685 197.497 123.685 197.467 123.694 197.439C123.702 197.411 123.718 197.386 123.74 197.366V197.373Z" fill="#043D12"/>
<path d="M133.386 29.0312C132.725 32.3345 131.298 39.4762 133.59 41.6696C133.59 41.6696 132.692 44.9729 126.594 44.9729C119.882 44.9729 123.39 41.6696 123.39 41.6696C127.05 40.7975 126.957 38.0756 126.317 35.5255L133.386 29.0312Z" fill="#7F3E3B"/>
<path d="M122.207 21.2886C122.245 21.2946 122.283 21.2946 122.32 21.2886C122.351 21.2731 122.379 21.2516 122.402 21.2252C122.425 21.1989 122.443 21.1682 122.454 21.135C122.465 21.1018 122.469 21.0668 122.467 21.0319C122.464 20.997 122.454 20.963 122.439 20.9318C122.261 20.555 121.995 20.2262 121.664 19.9733C121.333 19.7204 120.946 19.5507 120.536 19.4784C120.467 19.4726 120.399 19.4933 120.345 19.5363C120.291 19.5793 120.255 19.6413 120.245 19.7096C120.238 19.7787 120.258 19.848 120.301 19.9024C120.344 19.9568 120.407 19.992 120.476 20.0003C120.8 20.0625 121.105 20.201 121.364 20.4044C121.624 20.6077 121.832 20.8701 121.97 21.1696C121.995 21.2087 122.031 21.2403 122.072 21.2612C122.114 21.2821 122.161 21.2915 122.207 21.2886Z" fill="#263238"/>
<path d="M120.206 24.1888C119.686 25.1532 119.037 26.0423 118.276 26.8315C118.482 27.0197 118.726 27.161 118.992 27.2454C119.258 27.3298 119.539 27.3554 119.816 27.3204L120.206 24.1888Z" fill="#630F0F"/>
<path d="M120.701 23.4423C120.648 23.885 120.364 24.2153 120.08 24.1823C119.796 24.1492 119.598 23.7594 119.651 23.3168C119.703 22.8742 119.988 22.5438 120.311 22.5769C120.635 22.6099 120.747 22.9997 120.701 23.4423Z" fill="#263238"/>
<path d="M120.397 22.6165L119.38 22.2069C119.38 22.2069 119.809 23.079 120.397 22.6165Z" fill="#263238"/>
<path d="M131.945 197.439L126.554 198.695L123.278 186.301L128.669 185.045L131.945 197.439Z" fill="#7F3E3B"/>
<path d="M140.217 201.06H134.687L135.117 188.25H140.653L140.217 201.06Z" fill="#7F3E3B"/>
<path d="M134.244 200.419H140.461C140.569 200.418 140.673 200.456 140.755 200.527C140.836 200.597 140.889 200.695 140.904 200.802L141.611 205.717C141.625 205.842 141.612 205.967 141.574 206.087C141.536 206.206 141.473 206.315 141.389 206.408C141.306 206.501 141.203 206.576 141.089 206.626C140.974 206.677 140.851 206.702 140.725 206.702C138.559 206.669 137.515 206.537 134.78 206.537C133.095 206.537 130.637 206.715 128.318 206.715C125.999 206.715 125.867 204.416 126.839 204.211C131.172 203.273 131.859 201.991 133.32 200.762C133.577 200.542 133.905 200.42 134.244 200.419Z" fill="#263238"/>
<path d="M126.079 197.869L131.727 195.272C131.823 195.227 131.933 195.218 132.035 195.247C132.137 195.276 132.225 195.341 132.282 195.431L134.984 199.606C135.048 199.714 135.087 199.833 135.102 199.957C135.116 200.081 135.104 200.206 135.066 200.325C135.029 200.444 134.967 200.554 134.885 200.647C134.802 200.741 134.701 200.816 134.588 200.868C132.606 201.74 131.602 202.064 129.118 203.207C127.592 203.907 124.493 205.519 122.392 206.51C120.291 207.501 119.208 205.447 120.001 204.852C123.548 202.209 124.566 200.313 125.378 198.589C125.516 198.271 125.765 198.015 126.079 197.869Z" fill="#263238"/>
<path opacity="0.2" d="M123.278 186.301L125.035 192.947L130.36 191.434L128.675 185.045L123.278 186.301Z" fill="black"/>
<path opacity="0.2" d="M140.653 188.25H135.117L134.899 194.856H140.435L140.653 188.25Z" fill="black"/>
<path d="M143.163 42.925C145.462 43.4337 147.92 51.6985 147.92 51.6985L141.419 58.6155C141.419 58.6155 136.022 50.8462 137.125 47.9922C138.241 45.0126 140.422 42.3304 143.163 42.925Z" fill="#263238"/>
<path opacity="0.4" d="M139.49 48.1904C138.327 47.1268 137.541 47.4439 137.006 48.2895C136.478 50.7472 139.609 55.8937 140.871 57.8426C141.452 55.5171 142.12 50.615 139.49 48.1904Z" fill="black"/>
<path d="M114.035 43.0902C114.035 43.0902 111.392 44.0151 116.678 76.4863H139.14C138.763 67.3428 138.75 61.7008 143.104 42.925C139.956 42.2756 136.766 41.8561 133.557 41.6697C130.162 41.425 126.753 41.425 123.357 41.6697C119.003 42.0727 114.035 43.0902 114.035 43.0902Z" fill="#263238"/>
<path opacity="0.4" d="M113.83 55.5502C113.976 57.1291 114.167 58.9063 114.418 60.9147C116.261 59.2564 117.768 54.5393 117.213 51.791C115.896 52.8598 114.755 54.1282 113.83 55.5502Z" fill="black"/>
<path d="M116.235 50.6149C115.023 53.6656 113.658 56.6533 112.146 59.5668C110.651 62.5854 108.881 65.4603 106.86 68.1553L106.438 68.6772L106.226 68.9349C106.153 69.0207 106.094 69.1 105.982 69.219C105.584 69.6527 105.141 70.0425 104.66 70.3817C103.811 70.9699 102.881 71.4327 101.899 71.7559C100.187 72.3027 98.4092 72.6182 96.6136 72.694C93.2506 72.8277 89.8844 72.528 86.598 71.8021L86.9614 69.0274C88.4809 69.0274 90.0731 69.0274 91.586 68.9018C93.1055 68.8271 94.619 68.6594 96.1181 68.3997C97.5104 68.1825 98.872 67.8011 100.174 67.2634C100.701 67.0387 101.192 66.7407 101.635 66.3781C101.803 66.2367 101.956 66.0772 102.09 65.9025C102.09 65.9025 102.17 65.7967 102.223 65.7241L102.374 65.5061L102.685 65.07C104.343 62.5094 105.82 59.836 107.105 57.0695C108.426 54.2617 109.747 51.3482 110.956 48.481L116.235 50.6149Z" fill="#803E3C"/>
<path d="M114.035 43.0901C111.28 43.7508 107.898 51.3087 107.898 51.3087L113.606 59.699C113.606 59.699 121.21 50.1261 120.305 47.206C119.38 44.1604 117.398 42.2709 114.035 43.0901Z" fill="#263238"/>
<path d="M88.5469 69.4501L83.7836 67.2501L83.3079 71.987C83.3079 71.987 87.2718 73.1564 89.2538 71.987L88.5469 69.4501Z" fill="#7F3E3B"/>
<path d="M80.9361 66.7745L80.4803 70.3817L83.3079 71.9871L83.7836 67.2502L80.9361 66.7745Z" fill="#7F3E3B"/>
<path d="M135.777 23.7659C134.766 29.1635 134.456 31.4758 131.364 33.9268C126.739 37.6133 120.298 35.1953 119.677 29.6061C119.109 24.5719 120.853 16.5912 126.449 15.0717C127.681 14.7316 128.981 14.713 130.222 15.0176C131.464 15.3222 132.607 15.9398 133.543 16.8116C134.478 17.6834 135.175 18.7803 135.566 19.9977C135.957 21.2151 136.03 22.5124 135.777 23.7659Z" fill="#7F3E3B"/>
<path d="M123.918 24.9025C123.608 27.6574 123.489 34.8123 129.541 35.0369C136.947 35.3078 139.166 28.9787 138.506 26.4484C142.364 23.3103 142.919 17.9127 138.585 13.7836C134.251 9.65452 124.711 11.9602 122.069 15.9836C118.719 20.9716 123.918 24.9025 123.918 24.9025Z" fill="#263238"/>
<path d="M131.338 15.389C130.981 12.4821 131.258 10.4803 133.98 10.4803C136.702 10.4803 140.415 11.4647 141.776 14.2461C143.137 17.0274 143.249 21.3812 139.45 20.9385C135.652 20.4959 131.767 18.8641 131.338 15.389Z" fill="#043D12"/>
<path d="M135.553 14.6887C134.892 11.2269 137.99 1.47562 145.515 0.81496C149.004 0.517664 150.616 4.27019 148.819 4.89121C152.122 4.85157 154.236 9.2185 151.157 9.87255C153.588 11.4317 152.987 14.6293 149.519 16.2016C146.936 17.3908 136.444 19.4851 135.553 14.6887Z" fill="#263238"/>
<path d="M143.593 18.4079C141.168 18.4079 138.638 18.0512 137.066 17.0007C136.626 16.7357 136.256 16.3697 135.986 15.9332C135.716 15.4966 135.554 15.0019 135.513 14.4902C135.511 14.4468 135.526 14.4042 135.554 14.3711C135.582 14.338 135.622 14.3168 135.665 14.3119C135.687 14.3091 135.709 14.3109 135.73 14.3172C135.751 14.3235 135.771 14.3342 135.788 14.3485C135.804 14.3628 135.818 14.3804 135.828 14.4003C135.837 14.4201 135.843 14.4418 135.843 14.4638C135.883 14.9256 136.031 15.3714 136.276 15.7652C136.52 16.1589 136.854 16.4894 137.251 16.7299C140.243 18.7118 147.16 18.0512 149.314 17.3905C151.177 16.7827 152.439 15.6001 152.69 14.2392C152.768 13.7398 152.707 13.2284 152.512 12.7619C152.317 12.2954 151.997 11.8921 151.587 11.5966C151.571 11.5817 151.558 11.5638 151.55 11.5439C151.541 11.524 151.537 11.5026 151.537 11.4809C151.537 11.4593 151.541 11.4378 151.55 11.418C151.558 11.3981 151.571 11.3802 151.587 11.3653C151.618 11.3351 151.659 11.3181 151.702 11.3181C151.746 11.3181 151.787 11.3351 151.818 11.3653C152.279 11.7018 152.638 12.1599 152.854 12.6884C153.069 13.2169 153.134 13.795 153.04 14.3581C152.769 15.8446 151.428 17.113 149.446 17.7605C147.534 18.2426 145.564 18.4604 143.593 18.4079Z" fill="#263238"/>
<path d="M122.234 24.1889C121.619 25.0519 121.365 26.1211 121.527 27.1684C121.745 28.5558 123.093 28.6483 124.07 27.763C125.048 26.8778 125.9 25.279 125.18 24.1294C125.02 23.8811 124.799 23.6779 124.539 23.5391C124.278 23.4003 123.986 23.3306 123.69 23.3365C123.395 23.3425 123.106 23.4239 122.851 23.5731C122.596 23.7223 122.384 23.9343 122.234 24.1889Z" fill="#7F3E3B"/>
<path d="M122.61 76.4862C122.61 76.4862 125.821 114.467 129.157 135.873C131.846 153.162 133.974 193.574 133.974 193.574H141.518C141.518 193.574 144.201 154.371 142.84 137.273C139.384 94.0002 147.094 90.4723 139.16 76.4928L122.61 76.4862Z" fill="#043D12"/>
<path opacity="0.4" d="M132.111 90.8424C129.121 93.9806 126.707 97.6215 124.982 101.598C125.861 110.134 126.905 119.607 128.014 127.905C132.569 116.115 133.98 103.343 132.111 90.8424Z" fill="black"/>
<path d="M117.332 76.2487C117.332 76.2487 110.362 117.731 109.265 136.428C112 153.717 123.192 190.265 123.192 190.265L130.056 187.774C130.056 187.774 126.257 147.923 122.128 137.016C131.424 105.721 138.255 97.8059 136.266 76.4865C131.503 76.4865 117.332 76.2487 117.332 76.2487Z" fill="#043D12"/>
<path d="M122.273 192.088L131.549 189.571L131.02 185.871L121.091 188.56L122.273 192.088Z" fill="#263238"/>
<path d="M132.936 193.726H142.549L143.051 190.357L132.884 190.014L132.936 193.726Z" fill="#263238"/>
<path d="M139.49 75.165L140.501 77.18C140.58 77.3386 140.395 77.4972 140.138 77.4972H116.565C116.367 77.4972 116.195 77.398 116.182 77.2659L115.977 75.2839C115.977 75.1452 116.143 75.0263 116.361 75.0263H139.12C139.188 75.017 139.258 75.0247 139.323 75.049C139.387 75.0732 139.445 75.1131 139.49 75.165Z" fill="#043D12"/>
<path opacity="0.5" d="M139.49 75.165L140.501 77.18C140.58 77.3386 140.395 77.4972 140.138 77.4972H116.565C116.367 77.4972 116.195 77.398 116.182 77.2659L115.977 75.2839C115.977 75.1452 116.143 75.0263 116.361 75.0263H139.12C139.188 75.017 139.258 75.0247 139.323 75.049C139.387 75.0732 139.445 75.1131 139.49 75.165Z" fill="black"/>
<path d="M136.431 77.702H137.039C137.165 77.702 137.257 77.6359 137.25 77.5632L136.96 74.9206C136.96 74.8413 136.848 74.7819 136.729 74.7819H136.114C135.995 74.7819 135.903 74.8413 135.909 74.9206L136.193 77.5632C136.207 77.6491 136.312 77.702 136.431 77.702Z" fill="#043D12"/>
<path d="M128.252 58.4636C128.179 58.4625 128.109 58.4382 128.051 58.3943C127.992 58.3503 127.95 58.289 127.929 58.2192C125.775 50.2516 121.322 43.6847 119.162 42.6937C118.994 42.5906 118.792 42.5574 118.6 42.6012C118.56 42.6223 118.516 42.6349 118.472 42.6384C118.427 42.6418 118.381 42.6361 118.339 42.6214C118.296 42.6067 118.257 42.5835 118.224 42.5531C118.19 42.5227 118.164 42.4858 118.145 42.4447C118.126 42.4036 118.117 42.3591 118.116 42.314C118.115 42.2689 118.124 42.2242 118.141 42.1825C118.158 42.1409 118.184 42.1032 118.216 42.0718C118.249 42.0404 118.287 42.016 118.329 42.0001C118.51 41.9337 118.703 41.9077 118.894 41.9236C119.086 41.9396 119.272 41.9973 119.439 42.0925C121.725 43.176 126.244 49.6504 128.503 57.7963C130.122 57.7963 132.619 57.5783 133.227 57.5255C133.98 56.627 139.517 49.7033 137.449 42.1256C137.437 42.0839 137.433 42.0403 137.438 41.9973C137.444 41.9543 137.457 41.9127 137.479 41.8752C137.501 41.8376 137.529 41.8047 137.564 41.7785C137.598 41.7523 137.638 41.7333 137.68 41.7226C137.764 41.7003 137.853 41.7121 137.929 41.7554C138.004 41.7987 138.06 41.87 138.083 41.9538C140.389 50.3838 133.703 57.9879 133.63 58.0606C133.604 58.0927 133.572 58.1191 133.536 58.1384C133.5 58.1578 133.46 58.1695 133.419 58.1729C133.386 58.1729 130.089 58.4636 128.252 58.4636Z" fill="#043D12"/>
<path d="M139.199 63.1279C135.599 56.3826 134.126 55.9069 133.485 53.74C133.97 52.5282 134.663 51.4104 135.533 50.4367C135.097 50.3112 134.159 50.1262 133.551 50.0139C133.617 49.7166 133.69 49.4259 133.756 49.1418C133.094 49.0678 132.425 49.099 131.774 49.2343V48.5736C130.934 48.3911 130.073 48.3354 129.217 48.4085C129.292 48.7212 129.364 49.0383 129.435 49.3598C128.774 49.4853 127.77 49.6901 127.288 49.8289C128.225 50.8903 128.913 52.1475 129.303 53.5087C127.36 56.8451 119.816 78.2899 132.091 79.935C144.366 81.58 142.793 69.8798 139.199 63.1279Z" fill="#043D12"/>
<path opacity="0.4" d="M139.199 63.1279C135.599 56.3826 134.126 55.9069 133.485 53.74C133.97 52.5282 134.663 51.4104 135.533 50.4367C135.097 50.3112 134.159 50.1262 133.551 50.0139C133.617 49.7166 133.69 49.4259 133.756 49.1418C133.094 49.0678 132.425 49.099 131.774 49.2343V48.5736C130.934 48.3911 130.073 48.3354 129.217 48.4085C129.292 48.7212 129.364 49.0383 129.435 49.3598C128.774 49.4853 127.77 49.6901 127.288 49.8289C128.225 50.8903 128.913 52.1475 129.303 53.5087C127.36 56.8451 119.816 78.2899 132.091 79.935C144.366 81.58 142.793 69.8798 139.199 63.1279Z" fill="white"/>
<path d="M128.801 52.8676C128.724 53.2079 128.691 53.5563 128.702 53.9049C128.702 54.1493 129.362 54.3145 130.096 54.3871C130.829 54.4598 133.908 54.5787 133.808 54.2352C133.709 53.8916 133.96 53.4226 133.974 53.1319C133.987 52.8412 132.751 52.828 131.714 52.8676C130.677 52.9073 129.005 52.4977 128.801 52.8676Z" fill="#043D12"/>
<path d="M121.659 77.702H122.267C122.386 77.702 122.478 77.6359 122.472 77.5632L122.187 74.9206C122.187 74.8413 122.075 74.7819 121.95 74.7819H121.362C121.243 74.7819 121.15 74.8413 121.157 74.9206L121.441 77.5632C121.428 77.6491 121.533 77.702 121.659 77.702Z" fill="#043D12"/>
</svg>
