<svg width="20" height="20" viewBox="0 0 20 20" fill="none" xmlns="http://www.w3.org/2000/svg">
<g clip-path="url(#clip0_1580_1477)">
<path d="M11.9292 7.58131C11.8138 7.25667 11.6009 6.97565 11.3196 6.77669C11.0383 6.57774 10.7023 6.47058 10.3578 6.46988H9.0678C8.69977 6.46795 8.34411 6.60256 8.06957 6.84767C7.79504 7.09278 7.62115 7.43098 7.58152 7.79687C7.54189 8.16276 7.63934 8.53035 7.85503 8.82856C8.07072 9.12676 8.38932 9.33439 8.74923 9.41131L10.7135 9.83988C11.1152 9.92781 11.4701 10.1611 11.7103 10.4948C11.9504 10.8286 12.0587 11.2393 12.0144 11.6481C11.9701 12.0568 11.7763 12.4348 11.4703 12.7094C11.1642 12.9839 10.7675 13.1357 10.3564 13.1356H9.24637C8.52066 13.1356 7.90352 12.6727 7.67494 12.0256M9.80209 6.46988V4.80273M9.80209 14.8027V13.137M2.85352 19.2827V15.7113H6.42494" stroke="#6A7368" stroke-linecap="round" stroke-linejoin="round"/>
<path d="M19.1255 8.29153C19.5047 10.3133 19.2019 12.4037 18.2646 14.2347C17.3273 16.0658 15.8086 17.5338 13.9467 18.4083C12.0849 19.2828 9.98538 19.5144 7.9777 19.0666C5.97003 18.6189 4.16786 17.5171 2.85404 15.9344M0.874043 11.7087C0.494793 9.68694 0.797581 7.59651 1.73488 5.76547C2.67219 3.93444 4.19095 2.46646 6.05278 1.59193C7.91462 0.717407 10.0141 0.485848 12.0218 0.933599C14.0295 1.38135 15.8317 2.48306 17.1455 4.06582" stroke="#6A7368" stroke-linecap="round" stroke-linejoin="round"/>
<path d="M17.1456 0.716797V4.28823H13.5742" stroke="#6A7368" stroke-linecap="round" stroke-linejoin="round"/>
</g>
<defs>
<clipPath id="clip0_1580_1477">
<rect width="20" height="20" fill="white"/>
</clipPath>
</defs>
</svg>
