<svg width="279" height="279" viewBox="0 0 279 279" fill="none" xmlns="http://www.w3.org/2000/svg">
<path d="M86.8276 66.9568C86.6943 65.8458 87.1997 65.1292 88.2829 65.0015C89.3661 64.8737 90.0216 65.4347 90.1549 66.5679L90.5826 70.1841C90.7104 71.2951 90.2049 72.0116 89.1217 72.1394C88.0385 72.2672 87.3831 71.7061 87.2497 70.5729L86.8276 66.9568ZM88.3552 70.523C88.4163 71.0118 88.644 71.1895 89.0051 71.1506C89.3661 71.1118 89.5605 70.8785 89.4883 70.3896L89.0495 66.6179C88.9884 66.1291 88.744 65.9513 88.3996 65.9958C88.0552 66.0402 87.8441 66.2624 87.9163 66.7512L88.3552 70.523ZM92.6324 64.5737L93.6544 64.4515L90.6048 75.9611L89.5828 76.0833L92.6324 64.5737ZM92.749 70.3452C92.6157 69.2342 93.1267 68.5121 94.2099 68.3899C95.2931 68.2677 95.9486 68.8232 96.0819 69.9508L96.5041 73.567C96.6374 74.678 96.1319 75.3945 95.0431 75.5223C93.9544 75.65 93.3045 75.089 93.1712 73.9558L92.749 70.3452ZM94.2821 73.9058C94.3377 74.3947 94.5654 74.578 94.9265 74.5335C95.2876 74.4891 95.482 74.2613 95.4153 73.7725L94.9709 70.0008C94.9154 69.5175 94.671 69.3398 94.3266 69.3787C93.9822 69.4175 93.7711 69.6508 93.8433 70.1341L94.2821 73.9058Z" fill="#263238"/>
<path d="M99.0814 78.022L86.2164 79.5274C85.924 79.5618 85.6299 79.4788 85.3987 79.2965C85.1675 79.1142 85.018 78.8476 84.9833 78.5553L83.439 65.2904C83.4118 65.0435 83.44 64.7937 83.5217 64.5592C83.6034 64.3247 83.7365 64.1115 83.9112 63.935L89.2771 58.6524C89.5356 58.3961 89.8725 58.2339 90.234 58.1916C90.5955 58.1493 90.9607 58.2294 91.2713 58.4191L97.7094 62.3074C97.9214 62.4362 98.1012 62.6118 98.235 62.8207C98.3689 63.0296 98.4532 63.2663 98.4815 63.5128L100.037 76.7777C100.075 77.0693 99.9954 77.3641 99.8163 77.5973C99.6372 77.8306 99.3729 77.9833 99.0814 78.022Z" stroke="#263238" stroke-width="0.555482" stroke-linecap="round" stroke-linejoin="round"/>
<path d="M91.3048 60.1244C91.3247 60.2874 91.2958 60.4526 91.2216 60.599C91.1474 60.7455 91.0314 60.8666 90.8882 60.9469C90.745 61.0273 90.5812 61.0632 90.4175 61.0502C90.2539 61.0371 90.0978 60.9757 89.9691 60.8737C89.8404 60.7717 89.745 60.6338 89.695 60.4774C89.6449 60.3211 89.6425 60.1533 89.688 59.9956C89.7336 59.8379 89.825 59.6972 89.9506 59.5916C90.0763 59.4859 90.2306 59.42 90.3938 59.4023C90.6103 59.3773 90.828 59.4393 90.9988 59.5747C91.1696 59.7101 91.2797 59.9079 91.3048 60.1244Z" stroke="#263238" stroke-width="0.555482" stroke-linecap="round" stroke-linejoin="round"/>
<path d="M90.4881 50.8478C90.4881 50.8478 92.9989 60.5132 90.4881 60.2354" stroke="#263238" stroke-width="0.555482" stroke-linecap="round" stroke-linejoin="round"/>
<path d="M89.8493 58.2913C90.3381 55.6028 92.7989 51.0701 92.7989 51.0701" stroke="#263238" stroke-width="0.555482" stroke-linecap="round" stroke-linejoin="round"/>
<path d="M90.4881 60.2189C90.3413 60.2094 90.201 60.1547 90.0865 60.0622C89.9721 59.9696 89.8892 59.8439 89.8493 59.7023" stroke="#263238" stroke-width="0.555482" stroke-linecap="round" stroke-linejoin="round"/>
<path d="M101.692 54.4197C103.944 56.2394 105.67 58.6267 106.692 61.3354" stroke="#263238" stroke-width="0.555482" stroke-linecap="round" stroke-linejoin="round"/>
<path d="M75.6901 62.9962C76.3355 60.513 77.5583 58.2173 79.2589 56.2961C80.9595 54.3749 83.0899 52.8825 85.4764 51.9404C87.8629 50.9984 90.4382 50.6333 92.9926 50.8749C95.5469 51.1165 98.0081 51.958 100.176 53.3308" stroke="#263238" stroke-width="0.555482" stroke-linecap="round" stroke-linejoin="round"/>
<path d="M80.7617 79.3718C77.8245 76.8218 75.9022 73.3006 75.3458 69.4509" stroke="#263238" stroke-width="0.555482" stroke-linecap="round" stroke-linejoin="round"/>
<path d="M90.8214 83.3713C87.8498 83.2525 84.9678 82.3207 82.4892 80.6772" stroke="#263238" stroke-width="0.555482" stroke-linecap="round" stroke-linejoin="round"/>
<path d="M107.575 64.7349C108.201 69.0093 107.104 73.3575 104.525 76.8231C101.945 80.2888 98.0953 82.5882 93.821 83.2157" stroke="#263238" stroke-width="0.555482" stroke-linecap="round" stroke-linejoin="round"/>
<path d="M50.2272 118.936L70.6792 122.901L68.2972 135.188C68.2507 135.428 68.1109 135.639 67.9086 135.776C67.7063 135.912 67.458 135.963 67.2183 135.916L48.5681 132.301C48.3285 132.254 48.1171 132.114 47.9805 131.912C47.8438 131.71 47.7932 131.461 47.8397 131.222L50.2217 118.935L50.2272 118.936Z" stroke="#263238" stroke-width="0.554509" stroke-linecap="round" stroke-linejoin="round"/>
<path d="M71.3908 123.182L49.8622 119.032L50.493 115.76C50.5393 115.52 50.6791 115.308 50.8816 115.171C51.0842 115.034 51.3329 114.983 51.573 115.029L71.3125 118.834C71.545 118.884 71.7489 119.023 71.8816 119.22C72.0143 119.418 72.0656 119.659 72.0248 119.893L71.394 123.166L71.3908 123.182Z" stroke="#263238" stroke-width="0.555482" stroke-linecap="round" stroke-linejoin="round"/>
<path d="M62.9243 117.199L59.9952 116.634L56.6394 134.045L59.5684 134.609L62.9243 117.199Z" stroke="#263238" stroke-width="0.555482" stroke-linecap="round" stroke-linejoin="round"/>
<path d="M61.4587 116.917C61.4587 116.917 66.5413 113.206 68.891 114.328C71.2407 115.45 70.0798 118.578 68.891 118.35" stroke="#263238" stroke-width="0.555482" stroke-linecap="round" stroke-linejoin="round"/>
<path d="M63.4695 117.3C63.4695 117.3 67.6023 115.245 68.2022 116.189C68.8021 117.133 67.019 118.006 65.647 117.739" stroke="#263238" stroke-width="0.555482" stroke-linecap="round" stroke-linejoin="round"/>
<path d="M61.5975 116.661C61.5975 116.661 63.7416 112.773 63.4639 111.517H64.8915C64.8915 111.517 65.3581 112.995 63.6916 115.522" stroke="#263238" stroke-width="0.555482" stroke-linecap="round" stroke-linejoin="round"/>
<path d="M61.4587 116.917C61.4587 116.917 58.1258 111.584 55.5206 111.756C52.9154 111.929 52.8431 115.256 54.0263 115.484" stroke="#263238" stroke-width="0.555482" stroke-linecap="round" stroke-linejoin="round"/>
<path d="M59.4478 116.528C59.4478 116.528 56.376 113.078 55.4706 113.723C54.5652 114.367 55.8983 115.845 57.2704 116.106" stroke="#263238" stroke-width="0.555482" stroke-linecap="round" stroke-linejoin="round"/>
<path d="M61.4254 116.628C61.4254 116.628 60.8699 112.212 61.6087 111.162L60.2755 110.606C60.2755 110.606 59.2979 111.806 59.9089 114.773" stroke="#263238" stroke-width="0.555482" stroke-linecap="round" stroke-linejoin="round"/>
<path d="M76.5845 110.673C78.8745 113.567 80.3527 117.018 80.8672 120.672" stroke="#263238" stroke-width="0.555482" stroke-linecap="round" stroke-linejoin="round"/>
<path d="M41.778 114.006C43.2833 111.096 45.4548 108.582 48.1155 106.67C50.7762 104.758 53.851 103.502 57.0893 103.003C60.3276 102.505 63.6379 102.778 66.7506 103.801C69.8633 104.824 72.6903 106.568 75.0014 108.89" stroke="#263238" stroke-width="0.555482" stroke-linecap="round" stroke-linejoin="round"/>
<path d="M43.4444 135.837C40.5093 131.829 39.1098 126.901 39.5005 121.949" stroke="#263238" stroke-width="0.555482" stroke-linecap="round" stroke-linejoin="round"/>
<path d="M54.8706 143.652C51.1944 142.67 47.8599 140.694 45.233 137.942" stroke="#263238" stroke-width="0.555482" stroke-linecap="round" stroke-linejoin="round"/>
<path d="M81.0004 125.171C80.5735 130.672 77.9794 135.777 73.7886 139.364C69.5978 142.952 64.1536 144.728 58.6534 144.302" stroke="#263238" stroke-width="0.555482" stroke-linecap="round" stroke-linejoin="round"/>
<path d="M163.278 69.7842L161.534 68.8955C161.793 68.1295 161.88 67.3159 161.79 66.5125C162.345 66.7791 162.934 67.0679 163.456 67.3068C163.428 68.0234 163.384 68.8677 163.278 69.7842Z" stroke="#263238" stroke-width="0.555482" stroke-linecap="round" stroke-linejoin="round"/>
<path d="M165.817 68.4511C166.37 68.7329 166.961 68.9313 167.572 69.0399C168.212 72.4553 167.71 75.9864 166.145 79.0885C165.695 79.9662 160.968 77.5443 161.412 76.6666C162.425 74.4967 163.056 72.1685 163.278 69.7842C163.384 68.8677 163.445 68.0233 163.473 67.3068C164.462 67.7734 165.328 68.2011 165.817 68.4511Z" stroke="#263238" stroke-width="0.555482" stroke-linecap="round" stroke-linejoin="round"/>
<path d="M171.455 57.4358C172.774 58.1104 173.807 59.2359 174.367 60.6077C174.926 61.9794 174.975 63.5064 174.505 64.9112C174.034 66.3159 173.075 67.5051 171.802 68.2628C170.529 69.0204 169.026 69.2961 167.567 69.0398C166.956 68.9312 166.364 68.7328 165.811 68.451C165.323 68.201 164.456 67.7733 163.467 67.3067C162.912 67.0456 162.356 66.779 161.801 66.5124C160.434 65.8847 159.112 65.307 158.429 65.0848L164.406 53.4197C165.65 54.3307 170.055 56.7192 171.455 57.4358Z" stroke="#263238" stroke-width="0.555482" stroke-linecap="round" stroke-linejoin="round"/>
<path d="M158.601 47.8982C160.276 49.9872 162.225 51.8407 164.395 53.4085L158.418 65.0736C155.875 64.2405 153.231 63.7529 150.558 63.6238L148.242 63.5016L157.129 46.0984L158.601 47.8982Z" stroke="#263238" stroke-width="0.555482" stroke-linecap="round" stroke-linejoin="round"/>
<path d="M145.548 63.985L155.968 43.6266C156.049 43.4729 156.187 43.3571 156.352 43.304C156.517 43.251 156.697 43.2651 156.852 43.3433L157.618 43.7377C157.773 43.8173 157.89 43.9547 157.944 44.12C157.998 44.2853 157.985 44.4653 157.907 44.6209L157.146 46.1041L148.258 63.5073L147.503 64.9904C147.463 65.0671 147.409 65.1352 147.344 65.1909C147.278 65.2466 147.202 65.2888 147.12 65.3152C147.038 65.3415 146.952 65.3514 146.866 65.3442C146.78 65.3371 146.696 65.3132 146.62 65.2737L145.848 64.8793C145.767 64.8421 145.696 64.789 145.637 64.7232C145.578 64.6574 145.533 64.5803 145.505 64.4966C145.477 64.413 145.466 64.3244 145.474 64.2365C145.481 64.1485 145.506 64.063 145.548 63.985Z" stroke="#263238" stroke-width="0.555482" stroke-linecap="round" stroke-linejoin="round"/>
<path d="M145.859 51.2923L141.843 49.2371" stroke="#263238" stroke-width="0.555482" stroke-linecap="round" stroke-linejoin="round"/>
<path d="M150.563 44.8486L148.03 40.4159" stroke="#263238" stroke-width="0.555482" stroke-linecap="round" stroke-linejoin="round"/>
<path d="M143.387 58.8745L138.315 59.4133" stroke="#263238" stroke-width="0.555482" stroke-linecap="round" stroke-linejoin="round"/>
<path d="M176.96 39.6993C173.454 36.4516 169.142 34.2018 164.473 33.1835" stroke="#263238" stroke-width="0.555482" stroke-linecap="round" stroke-linejoin="round"/>
<path d="M169.183 84.1768C173.079 82.528 176.53 79.9829 179.256 76.7485C181.983 73.5141 183.907 69.6819 184.873 65.5634C185.839 61.445 185.818 57.1568 184.814 53.0477C183.81 48.9385 181.85 45.1244 179.093 41.9158" stroke="#263238" stroke-width="0.555482" stroke-linecap="round" stroke-linejoin="round"/>
<path d="M141.237 79.8385C146.102 84.0204 152.308 86.3151 158.723 86.3043" stroke="#263238" stroke-width="0.555482" stroke-linecap="round" stroke-linejoin="round"/>
<path d="M132.321 64.3683C133.219 69.2025 135.431 73.6959 138.715 77.3554" stroke="#263238" stroke-width="0.555482" stroke-linecap="round" stroke-linejoin="round"/>
<path d="M158.724 32.5613C151.596 32.5613 144.761 35.3927 139.721 40.4326C134.681 45.4724 131.849 52.308 131.849 59.4355" stroke="#263238" stroke-width="0.555482" stroke-linecap="round" stroke-linejoin="round"/>
<path d="M111.13 102.702C108.875 100.686 106.536 101.591 105.342 102.274C105.103 100.908 104.231 98.5526 101.253 98.1526C97.9982 97.7193 95.3319 100.891 96.204 105.313C96.8373 108.496 98.8703 111.423 99.9591 112.784C100.087 112.951 100.209 113.095 100.309 113.212H100.864C102.62 113.14 106.153 112.79 108.975 111.201C112.88 108.979 113.574 104.891 111.13 102.702Z" stroke="#263238" stroke-width="0.555482" stroke-linecap="round" stroke-linejoin="round"/>
<path d="M98.4648 115.284C98.4648 115.284 98.3148 115.556 98.1093 116.034" stroke="#263238" stroke-width="0.555482" stroke-linecap="round" stroke-linejoin="round"/>
<path d="M97.5428 117.583C96.654 120.489 96.043 125.466 100.776 128.482C112.474 135.942 116.412 118.345 107.441 119.928C101.281 121.039 107.797 137.32 117.44 134.037" stroke="#263238" stroke-width="0.555482" stroke-linecap="round" stroke-linejoin="round" stroke-dasharray="1.66 1.66"/>
<path d="M118.246 133.731C118.49 133.62 118.74 133.498 118.99 133.365" stroke="#263238" stroke-width="0.555482" stroke-linecap="round" stroke-linejoin="round"/>
<path d="M103.82 241.245C103.82 241.245 97.2151 245.739 94.5543 245.439C94.2621 245.424 93.9846 245.306 93.7711 245.105C92.038 243.317 90.6437 240.173 90.6437 240.173C90.6437 240.173 91.4714 239.028 94.0211 242.067L95.6375 240.584L92.3046 237.218C92.3046 237.218 94.1877 235.723 97.3873 237.629C97.2762 237.395 95.2154 232.907 96.7707 226.797L88.994 219.292L95.893 213.282L96.4485 212.815C96.4485 212.815 96.8818 213.243 97.5595 213.926C98.2372 214.61 99.1759 215.432 100.192 216.326C102.625 218.465 105.57 220.77 106.858 220.77C109.18 220.692 103.82 241.245 103.82 241.245Z" fill="white"/>
<mask id="mask0_160_955" style="mask-type:luminance" maskUnits="userSpaceOnUse" x="88" y="212" width="20" height="34">
<path d="M103.82 241.245C103.82 241.245 97.2151 245.739 94.5543 245.439C94.2621 245.424 93.9846 245.306 93.7711 245.105C92.038 243.317 90.6437 240.173 90.6437 240.173C90.6437 240.173 91.4714 239.028 94.0211 242.067L95.6375 240.584L92.3046 237.218C92.3046 237.218 94.1877 235.723 97.3873 237.629C97.2762 237.395 95.2154 232.907 96.7707 226.797L88.994 219.292L95.893 213.282L96.4485 212.815C96.4485 212.815 96.8818 213.243 97.5595 213.926C98.2372 214.61 99.1759 215.432 100.192 216.326C102.625 218.465 105.57 220.77 106.858 220.77C109.18 220.692 103.82 241.245 103.82 241.245Z" fill="white"/>
</mask>
<g mask="url(#mask0_160_955)">
<path opacity="0.4" d="M98.7149 238.301C98.7149 238.301 94.9487 242.189 94.5543 245.439C94.2621 245.423 93.9846 245.305 93.7711 245.105C92.038 243.317 90.6437 240.173 90.6437 240.173C90.6437 240.173 91.4714 239.028 94.0211 242.067L95.6375 240.584L92.3046 237.217C92.3046 237.217 94.1877 235.723 97.3873 237.628C97.2762 237.395 95.2154 232.907 96.7707 226.797L88.994 219.292L95.893 213.282L97.5595 213.909C98.2427 214.554 99.1759 215.415 100.192 216.309C98.7316 218.448 95.6042 222.875 95.6042 222.875L98.3094 226.541C98.3094 226.541 96.6429 235.784 98.7149 238.301Z" fill="#043D12"/>
</g>
<path d="M103.82 241.245C103.82 241.245 97.2151 245.739 94.5543 245.439C94.2621 245.424 93.9846 245.306 93.7711 245.105C92.038 243.317 90.6437 240.173 90.6437 240.173C90.6437 240.173 91.4714 239.028 94.0211 242.067L95.6375 240.584L92.3046 237.218C92.3046 237.218 94.1877 235.723 97.3873 237.629C97.2762 237.395 95.2154 232.907 96.7707 226.797L88.994 219.292L95.893 213.282L96.4485 212.815C96.4485 212.815 96.8818 213.243 97.5595 213.926C98.2372 214.61 99.1759 215.432 100.192 216.326C102.625 218.465 105.57 220.77 106.858 220.77C109.18 220.692 103.82 241.245 103.82 241.245Z" stroke="#263238" stroke-width="0.555482" stroke-linecap="round" stroke-linejoin="round"/>
<path d="M95.6597 240.584C96.0258 239.489 96.6182 238.484 97.3983 237.634" stroke="#263238" stroke-width="0.555482" stroke-linecap="round" stroke-linejoin="round"/>
<path d="M218.86 188.929C217.818 190.449 216.558 191.808 215.122 192.962C202.979 203.017 174.982 207.96 174.982 207.96C174.982 207.96 174.044 209.366 172.599 211.365C170.011 214.959 165.773 220.481 162.318 223.247C160.857 224.419 159.54 225.097 158.535 224.914L163.79 244.317L166.139 252.738C166.139 252.738 141.998 263.292 100.709 251.227C100.709 251.227 100.237 245.839 100.587 244.689C100.587 244.633 100.62 244.578 100.642 244.517C101.063 243.751 101.611 243.063 102.264 242.483C102.264 242.483 102.031 239.017 101.914 235.49C101.781 233.241 101.809 230.986 101.998 228.741C102.292 226.963 103.592 222.664 104.247 220.553L104.631 219.325L102.575 200.084L101.987 194.529L101.953 194.24C101.953 194.201 101.953 194.157 101.953 194.101L101.631 191.129L91.0103 194.373C91.0103 194.373 91.5658 195.618 92.3324 197.362C93.7266 200.556 95.7764 205.416 96.2208 207.36C96.2541 207.519 96.2987 207.675 96.3541 207.827C97.3373 210.632 101.081 213.182 101.081 213.182L91.0214 224.936L88.0496 222.858C87.6692 223.14 87.2681 223.392 86.8498 223.614C84.8945 224.675 80.795 226.236 76.2956 223.853C74.3459 222.757 72.6528 221.257 71.3296 219.453C63.4418 209.21 60.0089 200.828 61.1254 191.013C62.2419 181.197 106.414 150.907 115.179 151.223L128.216 154.101C128.5 153.867 129.261 153.268 129.85 153.295C132.222 153.418 132.283 156.173 132.283 156.173L161.501 160.917C161.501 160.917 164.528 159.4 165.056 159.422C165.438 159.448 165.807 159.569 166.13 159.773C166.453 159.978 166.72 160.26 166.906 160.594C166.906 160.594 174.471 156.062 176.904 157.117C184.915 160.572 224.776 179.942 218.86 188.929Z" fill="#043D12"/>
<path opacity="0.2" d="M117.351 236.934C114.031 240.584 109.573 243.002 104.703 243.794C103.164 244.039 101.814 244.283 100.631 244.528C101.052 243.762 101.6 243.074 102.253 242.494C102.253 242.494 102.02 239.028 101.903 235.501C105.331 237.762 111.308 240.373 117.351 236.934Z" fill="black"/>
<path opacity="0.2" d="M104.236 220.581L104.62 219.353L102.564 200.111C105.636 204.516 116.59 219.52 124.139 221.142C132.033 222.831 110.93 225.825 104.236 220.581Z" fill="black"/>
<path opacity="0.2" d="M163.778 244.344C155.53 243.406 143.87 241.328 142.703 237.012C140.887 230.268 149.725 226.225 162.318 223.275C160.857 224.447 159.54 225.125 158.535 224.941L163.778 244.344Z" fill="black"/>
<path opacity="0.2" d="M215.116 192.968C202.973 203.022 174.977 207.966 174.977 207.966C174.977 207.966 174.038 209.371 172.594 211.371C168.475 201.537 167.846 190.589 170.811 180.348C170.811 180.348 172.966 192.013 181.92 194.79C181.92 194.79 175.066 189.685 177.477 177.398C177.477 177.398 179.815 191.84 195.03 195.851C202.412 197.834 209.639 195.679 215.116 192.968Z" fill="black"/>
<path opacity="0.2" d="M101.942 194.279L101.609 191.168L90.9881 194.412C90.9881 194.412 91.5436 195.656 92.3102 197.401C88.2496 196.984 80.545 200.733 79.2008 196.645C77.5788 191.69 87.533 193.396 87.533 193.396L96.9429 187.924C95.1653 180.314 99.6925 174.593 99.6925 174.593L100.553 179.903C100.965 169.81 104.914 164.288 104.914 164.288C101.648 172.271 101.737 191.94 101.942 194.279Z" fill="black"/>
<path opacity="0.2" d="M101.076 213.198L91.0158 224.952L88.044 222.875C87.6635 223.156 87.2624 223.409 86.8441 223.63C84.8888 224.691 80.7894 226.252 76.29 223.869C79.5507 219.359 86.2886 212.721 94.2931 210.16C92.3282 213.084 90.5579 216.135 88.9938 219.292L91.0602 221.325C91.0602 221.325 96.2151 215.448 101.076 213.198Z" fill="black"/>
<path opacity="0.2" d="M125.5 161.427C125.5 162.466 124.845 174.204 133.399 177.331C141.954 180.458 149.541 175.17 149.541 175.17C149.541 175.17 136.426 187.824 128.433 181.058C120.44 174.292 125.5 161.427 125.5 161.427Z" fill="black"/>
<path d="M100.692 251.249C100.692 251.249 100.231 245.861 100.576 244.717C100.864 243.75 102.242 242.495 102.242 242.495C102.242 242.495 101.514 231.574 101.981 228.758C102.381 226.341 104.614 219.314 104.614 219.314L101.603 191.129L90.9824 194.379C90.9824 194.379 95.504 204.377 96.2039 207.344C96.9038 210.31 101.07 213.16 101.07 213.16L91.0102 224.908L88.0383 222.836C88.0383 222.836 79.2617 229.702 71.335 219.437C63.4083 209.171 60.0032 200.811 61.1141 190.968C62.2251 181.125 106.414 150.868 115.179 151.179L128.216 154.062C128.494 153.829 129.261 153.229 129.844 153.257C132.216 153.379 132.277 156.134 132.277 156.134L161.495 160.878C161.495 160.878 164.528 159.361 165.056 159.383C165.436 159.41 165.804 159.531 166.126 159.736C166.448 159.94 166.714 160.222 166.9 160.556C166.9 160.556 174.466 156.028 176.899 157.078C184.898 160.533 224.753 179.903 218.843 188.891C210.45 201.667 174.96 207.949 174.96 207.949C174.96 207.949 163.156 225.725 158.507 224.903L166.111 252.727" stroke="#263238" stroke-width="0.555482" stroke-linecap="round" stroke-linejoin="round"/>
<path d="M187.981 190.879C201.39 199.733 212.2 198.1 220.66 186.702C220.66 186.702 227.703 177.62 227.203 167.815C226.703 158.011 224.365 126.071 193.841 134.237C188.814 135.581 177.088 151.284 176.105 155.6C175.649 157.572 170.944 167.61 166.373 178.003" fill="#043D12"/>
<path d="M187.981 190.879C201.39 199.733 212.2 198.1 220.66 186.702C220.66 186.702 227.703 177.62 227.203 167.815C226.703 158.011 224.365 126.071 193.841 134.237C188.814 135.581 177.088 151.284 176.105 155.6C175.649 157.572 170.944 167.61 166.373 178.003" stroke="#263238" stroke-width="0.555482" stroke-linecap="round" stroke-linejoin="round"/>
<path d="M151.702 97.0418C151.702 97.0418 160.246 95.7475 166.178 101.058C173.683 107.774 182.109 125.882 170.111 155.889C170.111 155.889 152.385 144.124 122.134 152.001C122.134 152.001 124.739 144.963 120.168 122.805C118.101 112.779 123.3 89.6816 151.702 97.0418Z" fill="#263238"/>
<path d="M138.754 172.343C151.397 174.393 164.828 160.394 164.828 160.394C164.828 160.394 157.957 159.55 157.34 156.323C155.368 146.141 163.301 133.548 163.301 133.548C163.301 133.548 132.605 134.398 137.971 141.325C138.969 142.592 139.786 143.992 140.398 145.485C142.259 150.057 140.954 153.506 139.982 154.373C139.911 154.431 139.835 154.481 139.754 154.523C137.899 155.367 130.272 154.106 130.272 154.106C130.272 154.106 127.217 170.471 138.754 172.343Z" fill="white" stroke="#263238" stroke-width="0.555482" stroke-linecap="round" stroke-linejoin="round"/>
<path d="M160.479 164.271C160.479 164.271 154.646 166.605 146.109 165.91L142.265 167.793" stroke="#263238" stroke-width="0.555482" stroke-linecap="round" stroke-linejoin="round"/>
<path d="M138.432 167.499L138.154 164.977C138.154 164.977 131.855 163.005 129.905 159.261" stroke="#263238" stroke-width="0.555482" stroke-linecap="round" stroke-linejoin="round"/>
<path d="M139.982 154.39C149.38 156.845 153.796 144.791 153.796 144.791C153.796 144.791 146.275 142.569 140.398 145.524C142.259 150.096 140.97 153.545 139.982 154.39Z" fill="#263238"/>
<path d="M163.845 127.221C166.128 114.384 163.589 98.9802 144.048 100.258C130.088 101.169 130.205 116.472 131.127 121.044C132.683 128.726 130.455 131.748 132.849 138.203C134.571 142.841 138.565 148.029 143.27 149.973C146.164 151.168 157.879 142.947 158.746 139.186" fill="white"/>
<path d="M163.845 127.221C166.128 114.384 163.589 98.9802 144.048 100.258C130.088 101.169 130.205 116.472 131.127 121.044C132.683 128.726 130.455 131.748 132.849 138.203C134.571 142.841 138.565 148.029 143.27 149.973C146.164 151.168 157.879 142.947 158.746 139.186" stroke="#263238" stroke-width="0.555482" stroke-linecap="round" stroke-linejoin="round"/>
<path d="M139.293 123.438C139.176 124.882 139.004 128.437 135.96 131.081C133.982 132.787 138.515 134.531 138.515 134.531" stroke="#263238" stroke-width="0.555482" stroke-linecap="round" stroke-linejoin="round"/>
<path d="M136.049 118.345C136.049 118.345 131.738 116.245 128.827 119.711" stroke="#263238" stroke-width="0.555482" stroke-linecap="round" stroke-linejoin="round"/>
<path d="M143.281 118.061C146.312 117.182 149.545 117.311 152.497 118.428" stroke="#263238" stroke-width="0.555482" stroke-linecap="round" stroke-linejoin="round"/>
<path d="M147.758 124.132C147.892 125.371 148.725 126.299 149.619 126.199C150.513 126.099 151.13 125.021 150.997 123.783C150.863 122.544 150.03 121.622 149.136 121.716C148.241 121.811 147.625 122.894 147.758 124.132Z" fill="#263238"/>
<path d="M138.726 138.614C142.153 138.141 145.439 136.94 148.364 135.092C148.364 135.092 148.769 140.48 144.259 141.597C140.798 142.458 139.459 138.508 139.459 138.508" stroke="#263238" stroke-width="0.555482" stroke-linecap="round" stroke-linejoin="round"/>
<path d="M151.402 105.146C151.402 105.146 150.169 120.361 163.595 125.888L169.889 111.262L160.368 100.708L146.031 96.5637C124.606 97.9024 115.385 111.212 127.278 146.679C127.278 146.696 123.95 104.457 151.402 105.146Z" fill="#263238"/>
<path d="M160.651 126.532C160.462 124.821 164.789 120.466 166.25 123.26C168.744 128.027 166.928 132.148 164.351 133.815C163.195 134.542 161.729 135.909 160.701 134.62" fill="white"/>
<path d="M160.651 126.532C160.462 124.821 164.789 120.466 166.25 123.26C168.744 128.027 166.928 132.148 164.351 133.815C163.195 134.542 161.729 135.909 160.701 134.62" stroke="#263238" stroke-width="0.555482" stroke-linecap="round" stroke-linejoin="round"/>
<path d="M134.682 124.727C134.821 125.966 135.654 126.893 136.549 126.793C137.443 126.693 138.06 125.616 137.926 124.377C137.793 123.138 136.954 122.21 136.06 122.31C135.166 122.41 134.543 123.46 134.682 124.727Z" fill="#263238"/>
<g opacity="0.2">
<path d="M125.378 122.205C125.217 123.233 125.106 124.277 125.045 125.316" stroke="white" stroke-width="0.555482" stroke-linecap="round" stroke-linejoin="round"/>
<path d="M149.18 102.38C138.326 102.097 128.239 109.012 125.85 119.872" stroke="white" stroke-width="0.555482" stroke-linecap="round" stroke-linejoin="round"/>
<path d="M147.242 99.2802C147.242 99.2802 131.588 95.5974 125.722 105.979" stroke="white" stroke-width="0.555482" stroke-linecap="round" stroke-linejoin="round"/>
<path d="M159.94 117.367C160.884 118.71 162.02 119.908 163.312 120.922" stroke="white" stroke-width="0.555482" stroke-linecap="round" stroke-linejoin="round"/>
<path d="M153.73 101.308C154.53 106.28 156.211 111.069 158.696 115.45" stroke="white" stroke-width="0.555482" stroke-linecap="round" stroke-linejoin="round"/>
<path d="M169.455 148.39C169.178 149.635 168.85 150.868 168.483 152.09" stroke="white" stroke-width="0.555482" stroke-linecap="round" stroke-linejoin="round"/>
<path d="M168.55 127.704C171.088 133.342 170.916 140.358 169.872 146.291" stroke="white" stroke-width="0.555482" stroke-linecap="round" stroke-linejoin="round"/>
<path d="M166.689 137.503C166.813 139.638 166.484 141.776 165.722 143.775C164.961 145.774 163.786 147.589 162.273 149.101" stroke="white" stroke-width="0.555482" stroke-linecap="round" stroke-linejoin="round"/>
<path d="M159.473 103.124C162.134 106.724 164.112 110.584 167.195 113.873C170.444 117.333 173.694 121.299 174.305 126.177" stroke="white" stroke-width="0.555482" stroke-linecap="round" stroke-linejoin="round"/>
<path d="M155.718 99.3802C156.48 99.8799 157.181 100.467 157.807 101.13" stroke="white" stroke-width="0.555482" stroke-linecap="round" stroke-linejoin="round"/>
</g>
<path d="M209.261 182.914C208.95 182.98 208.639 183.036 208.317 183.08C199.918 184.28 190.497 177.314 187.32 168.954C184.809 162.35 187.003 154.856 188.203 151.651C188.581 150.646 188.853 150.062 188.853 150.062C193.919 142.841 223.37 156.978 223.715 164.777C224.059 172.576 217.866 181.025 209.261 182.914Z" fill="#263238" stroke="#263238" stroke-width="0.555482" stroke-linecap="round" stroke-linejoin="round"/>
<path d="M218.477 165.833C218.477 165.833 216.81 178.231 208.317 183.08C199.918 184.28 190.497 177.314 187.32 168.954C184.809 162.35 187.003 154.856 188.203 151.651C198.129 145.98 218.477 165.833 218.477 165.833Z" fill="white"/>
<mask id="mask1_160_955" style="mask-type:luminance" maskUnits="userSpaceOnUse" x="186" y="150" width="33" height="34">
<path d="M218.477 165.833C218.477 165.833 216.81 178.231 208.317 183.08C199.918 184.28 190.497 177.314 187.32 168.954C184.809 162.35 187.003 154.856 188.203 151.651C198.129 145.98 218.477 165.833 218.477 165.833Z" fill="white"/>
</mask>
<g mask="url(#mask1_160_955)">
<path opacity="0.4" d="M218.477 165.833C218.477 165.833 216.81 178.231 208.317 183.08C199.918 184.28 190.497 177.314 187.32 168.954C184.809 162.35 187.003 154.856 188.203 151.651C198.129 145.98 218.477 165.833 218.477 165.833Z" fill="#043D12"/>
</g>
<path d="M218.477 165.833C218.477 165.833 216.81 178.231 208.317 183.08C199.918 184.28 190.497 177.314 187.32 168.954C184.809 162.35 187.003 154.856 188.203 151.651C198.129 145.98 218.477 165.833 218.477 165.833Z" stroke="#263238" stroke-width="0.555482" stroke-linecap="round" stroke-linejoin="round"/>
<path d="M183.742 172.36C183.742 172.36 193.308 186.091 204.479 187.235C215.649 188.38 222.809 178.97 223.248 171.876" stroke="#263238" stroke-width="0.555482" stroke-linecap="round" stroke-linejoin="round"/>
<path d="M178.365 110.395C179.204 108.046 185.237 108.835 187.153 116.167C189.069 123.499 196.596 141.325 196.596 141.325C196.596 141.325 226.592 97.2138 231.947 95.5141C237.302 93.8143 235.197 101.458 228.014 112.062C228.014 112.062 234.741 110.879 236.508 112.062C238.274 113.245 237.413 120.394 238.352 122.872C239.929 127.054 236.424 127.938 236.424 127.938C238.144 127.976 239.797 128.606 241.107 129.721C243.035 131.526 242.068 138.986 242.618 141.097C243.168 143.208 239.491 144.985 239.491 144.985C239.491 144.985 248.328 149.801 246.334 151.012C242.968 153.045 241.051 150.962 241.051 150.962C241.051 150.962 227.47 168.016 217.227 171.815C206.984 175.615 187.048 160.517 184.903 152.295C182.759 144.074 185.32 144.58 183.692 130.898C182.065 117.217 178.365 110.395 178.365 110.395Z" fill="white" stroke="#263238" stroke-width="0.555482" stroke-linecap="round" stroke-linejoin="round"/>
<path d="M222.097 83.2925L182.6 93.5881C181.199 93.9533 180.359 95.3853 180.725 96.7865L199.395 168.411C199.76 169.812 201.192 170.652 202.593 170.287L242.09 159.991C243.491 159.626 244.331 158.194 243.966 156.793L225.296 85.1683C224.93 83.7671 223.499 82.9273 222.097 83.2925Z" fill="white" stroke="#263238" stroke-width="0.555482" stroke-linecap="round" stroke-linejoin="round"/>
<path d="M199.468 91.5256C199.489 91.607 199.494 91.6917 199.483 91.7749C199.471 91.8582 199.443 91.9383 199.401 92.0108C199.358 92.0832 199.302 92.1466 199.235 92.1973C199.168 92.248 199.091 92.2849 199.01 92.3061C198.929 92.3272 198.844 92.3322 198.761 92.3206C198.677 92.309 198.597 92.2811 198.525 92.2386C198.452 92.196 198.389 92.1396 198.338 92.0726C198.288 92.0055 198.251 91.9291 198.229 91.8478C198.207 91.7665 198.201 91.6814 198.212 91.5977C198.222 91.514 198.25 91.4333 198.292 91.3603C198.335 91.2873 198.391 91.2236 198.459 91.1728C198.526 91.122 198.603 91.0852 198.685 91.0646C198.85 91.0223 199.025 91.0471 199.172 91.1335C199.318 91.2199 199.425 91.3609 199.468 91.5256Z" fill="#043D12" stroke="#263238" stroke-width="0.555482" stroke-linecap="round" stroke-linejoin="round"/>
<path d="M207.606 89.4038C207.619 89.4549 207.622 89.5081 207.615 89.5604C207.608 89.6126 207.59 89.663 207.563 89.7084C207.536 89.7538 207.501 89.7935 207.458 89.8251C207.416 89.8568 207.368 89.8797 207.317 89.8927C207.24 89.912 207.16 89.9083 207.085 89.8819C207.011 89.8556 206.946 89.8078 206.899 89.7446C206.851 89.6813 206.824 89.6055 206.819 89.5267C206.815 89.4478 206.834 89.3694 206.874 89.3015C206.915 89.2335 206.974 89.1789 207.045 89.1446C207.116 89.1103 207.196 89.0979 207.274 89.1088C207.352 89.1198 207.426 89.1536 207.485 89.2061C207.544 89.2586 207.586 89.3274 207.606 89.4038Z" fill="#043D12" stroke="#263238" stroke-width="0.555482" stroke-linecap="round" stroke-linejoin="round"/>
<path d="M205.661 90.4055L200.893 91.6345C200.798 91.6591 200.74 91.7561 200.765 91.8514L200.79 91.9484C200.814 92.0436 200.911 92.1009 201.007 92.0763L205.775 90.8473C205.87 90.8228 205.928 90.7257 205.903 90.6305L205.878 90.5335C205.854 90.4383 205.757 90.381 205.661 90.4055Z" fill="#043D12" stroke="#263238" stroke-width="0.556425" stroke-linecap="round" stroke-linejoin="round"/>
<path d="M224.109 85.9098L242.623 156.945C242.727 157.343 242.668 157.766 242.459 158.121C242.251 158.477 241.911 158.735 241.512 158.839L202.523 168.999C202.125 169.102 201.702 169.043 201.347 168.835C200.992 168.626 200.733 168.286 200.629 167.888L182.115 96.8528C182.012 96.4543 182.071 96.0312 182.279 95.6762C182.487 95.3211 182.828 95.0631 183.226 94.9586L191.23 92.87C191.487 92.8026 191.758 92.8155 192.008 92.9068C192.257 92.9982 192.472 93.1637 192.625 93.381L193.208 94.2087C193.36 94.4261 193.575 94.5916 193.825 94.6829C194.074 94.7743 194.345 94.7871 194.602 94.7197L212.172 90.1426C212.426 90.0762 212.654 89.9346 212.827 89.7364C212.999 89.5382 213.108 89.2926 213.138 89.0316L213.244 88.0262C213.273 87.7647 213.381 87.5183 213.554 87.3199C213.727 87.1214 213.956 86.9802 214.211 86.9152L222.215 84.8266C222.61 84.7225 223.03 84.7777 223.384 84.9803C223.738 85.183 223.999 85.5168 224.109 85.9098Z" fill="#043D12" stroke="#263238" stroke-width="0.555482" stroke-linecap="round" stroke-linejoin="round"/>
<path d="M225.467 125.771C229.09 117.428 225.263 107.727 216.919 104.104C208.576 100.482 198.875 104.309 195.252 112.652C191.63 120.996 195.457 130.697 203.8 134.319C212.144 137.942 221.844 134.115 225.467 125.771Z" fill="white" stroke="#263238" stroke-width="0.555482" stroke-linecap="round" stroke-linejoin="round"/>
<path d="M203.556 128.671C203.697 129.002 203.955 129.269 204.282 129.421C204.608 129.573 204.979 129.598 205.323 129.493L210.739 127.932C210.751 128.049 210.773 128.164 210.805 128.276C210.887 128.559 211.024 128.824 211.209 129.054C211.393 129.284 211.62 129.475 211.879 129.617C212.137 129.759 212.42 129.849 212.713 129.882C213.006 129.914 213.303 129.889 213.586 129.807C213.869 129.725 214.133 129.588 214.363 129.404C214.593 129.219 214.784 128.992 214.927 128.734C215.069 128.475 215.159 128.192 215.191 127.899C215.224 127.606 215.198 127.31 215.116 127.027C215.082 126.914 215.039 126.805 214.988 126.699L220.399 125.138C220.752 125.043 221.057 124.82 221.253 124.511C221.45 124.203 221.523 123.832 221.46 123.471C221.425 123.276 221.35 123.089 221.239 122.924C221.128 122.76 220.983 122.62 220.814 122.515C220.645 122.41 220.456 122.342 220.259 122.316C220.062 122.289 219.862 122.304 219.671 122.361L219.215 122.083C218.228 121.492 217.502 120.549 217.182 119.444L216.155 115.884C215.732 114.417 214.792 113.154 213.509 112.327C212.227 111.499 210.688 111.165 209.178 111.384C209.437 111.111 209.599 110.759 209.639 110.385C209.679 110.01 209.594 109.632 209.398 109.31C209.202 108.988 208.905 108.74 208.554 108.604C208.203 108.467 207.816 108.45 207.454 108.555C207.092 108.66 206.775 108.881 206.551 109.184C206.327 109.488 206.209 109.856 206.216 110.233C206.222 110.61 206.353 110.974 206.587 111.27C206.821 111.565 207.146 111.775 207.511 111.867C206.103 112.483 204.967 113.59 204.316 114.983C203.666 116.376 203.546 117.958 203.979 119.433L205.017 123.033C205.202 123.661 205.248 124.323 205.152 124.971C205.056 125.62 204.821 126.239 204.462 126.788C204.274 126.844 204.099 126.94 203.95 127.068C203.801 127.195 203.68 127.353 203.595 127.53C203.509 127.707 203.462 127.9 203.455 128.096C203.449 128.293 203.483 128.488 203.556 128.671ZM208.895 109.973C208.949 110.163 208.947 110.365 208.887 110.554C208.827 110.742 208.712 110.908 208.558 111.032C208.403 111.155 208.216 111.23 208.019 111.247C207.822 111.263 207.624 111.221 207.451 111.126C207.278 111.03 207.137 110.886 207.046 110.71C206.955 110.535 206.918 110.336 206.94 110.14C206.962 109.943 207.042 109.757 207.169 109.606C207.297 109.455 207.466 109.345 207.656 109.29C207.782 109.253 207.914 109.241 208.045 109.255C208.176 109.269 208.303 109.309 208.418 109.373C208.533 109.436 208.635 109.522 208.716 109.625C208.798 109.728 208.859 109.847 208.895 109.973Z" fill="#FFCF00" stroke="#263238" stroke-width="0.555482" stroke-linecap="round" stroke-linejoin="round"/>
<path d="M214.005 126.787L211.616 127.482" stroke="#263238" stroke-width="0.555482" stroke-linecap="round" stroke-linejoin="round"/>
<path d="M217.538 122.966L206.589 126.132" stroke="#263238" stroke-width="0.555482" stroke-linecap="round" stroke-linejoin="round"/>
<path d="M228.975 145.091L206.756 150.879C206.121 151.046 205.458 151.087 204.807 150.998C204.156 150.91 203.529 150.694 202.962 150.362C202.394 150.031 201.897 149.591 201.5 149.068C201.103 148.545 200.812 147.948 200.646 147.313C200.478 146.677 200.438 146.014 200.527 145.363C200.616 144.712 200.832 144.084 201.164 143.517C201.496 142.949 201.936 142.453 202.46 142.055C202.984 141.658 203.581 141.368 204.217 141.202L226.437 135.414C227.716 135.084 229.074 135.274 230.214 135.942C231.353 136.611 232.182 137.703 232.519 138.98C232.858 140.261 232.676 141.623 232.011 142.769C231.347 143.914 230.255 144.749 228.975 145.091Z" fill="#263238"/>
<path d="M204.306 143.941C204.383 143.811 204.486 143.698 204.61 143.611C204.734 143.524 204.874 143.464 205.023 143.436C205.166 143.387 205.319 143.371 205.469 143.387C205.62 143.403 205.765 143.452 205.895 143.53C206.151 143.72 206.325 144 206.384 144.313L206.423 144.458L205.739 144.635L205.689 144.447C205.669 144.322 205.606 144.208 205.512 144.124C205.468 144.096 205.418 144.079 205.366 144.073C205.314 144.067 205.261 144.073 205.212 144.091C205.161 144.1 205.112 144.12 205.071 144.151C205.029 144.182 204.996 144.222 204.973 144.269C204.931 144.388 204.931 144.517 204.973 144.635C205.017 144.818 205.118 144.981 205.262 145.102C205.444 145.246 205.642 145.371 205.851 145.474C206.031 145.565 206.205 145.667 206.373 145.78C206.519 145.881 206.648 146.005 206.756 146.146C206.88 146.313 206.97 146.501 207.023 146.702C207.123 147.007 207.103 147.339 206.967 147.629C206.795 147.879 206.538 148.058 206.245 148.135C205.951 148.211 205.64 148.18 205.367 148.046C205.104 147.861 204.925 147.579 204.867 147.263L204.795 146.98L205.478 146.802L205.562 147.13C205.639 147.43 205.801 147.546 206.051 147.48C206.3 147.413 206.389 147.235 206.312 146.924C206.266 146.742 206.165 146.579 206.023 146.457C205.841 146.313 205.644 146.19 205.434 146.091C205.255 145.996 205.08 145.892 204.912 145.78C204.766 145.678 204.636 145.555 204.528 145.413C204.404 145.247 204.313 145.059 204.262 144.858C204.164 144.557 204.18 144.231 204.306 143.941Z" fill="white"/>
<path d="M208.128 146.468C208.206 146.763 208.373 146.879 208.622 146.818C208.872 146.757 208.956 146.568 208.878 146.263L207.956 142.719L208.639 142.541L209.55 146.035C209.65 146.34 209.631 146.672 209.495 146.963C209.418 147.095 209.314 147.209 209.189 147.297C209.064 147.385 208.922 147.445 208.772 147.474C208.628 147.52 208.475 147.535 208.324 147.52C208.173 147.505 208.027 147.459 207.895 147.385C207.637 147.193 207.459 146.912 207.395 146.596L206.484 143.102L207.206 142.913L208.128 146.468Z" fill="white"/>
<path d="M211.1 142.185C211.223 142.27 211.328 142.379 211.408 142.505C211.488 142.631 211.542 142.771 211.566 142.919L211.605 143.08C211.666 143.279 211.68 143.491 211.644 143.696C211.609 143.866 211.517 144.019 211.383 144.13C211.778 144.174 212.044 144.457 212.178 144.968L212.272 145.346C212.322 145.49 212.342 145.643 212.33 145.795C212.319 145.947 212.276 146.095 212.205 146.229C212.122 146.358 212.012 146.467 211.884 146.552C211.756 146.636 211.612 146.692 211.461 146.718L210.35 147.018L209.15 142.424L210.261 142.135C210.537 142.047 210.836 142.065 211.1 142.185ZM210.339 144.102L210.622 144.03C210.682 144.019 210.739 143.997 210.79 143.963C210.84 143.93 210.884 143.886 210.917 143.835C210.968 143.705 210.968 143.56 210.917 143.43L210.85 143.174C210.828 143.046 210.763 142.928 210.667 142.841C210.623 142.81 210.572 142.791 210.519 142.784C210.465 142.777 210.411 142.783 210.361 142.802L210.011 142.891L210.339 144.102ZM210.894 146.174L211.305 146.063C211.358 146.055 211.408 146.035 211.452 146.005C211.497 145.975 211.534 145.936 211.561 145.891C211.605 145.768 211.605 145.635 211.561 145.513L211.455 145.113C211.429 144.956 211.351 144.813 211.233 144.707C211.175 144.674 211.109 144.654 211.042 144.649C210.975 144.643 210.908 144.652 210.844 144.674L210.522 144.763L210.894 146.174Z" fill="white"/>
<path d="M212.033 141.947C212.108 141.815 212.211 141.702 212.335 141.614C212.459 141.527 212.6 141.468 212.75 141.441C212.893 141.392 213.045 141.374 213.195 141.39C213.346 141.405 213.491 141.453 213.622 141.53C213.879 141.722 214.056 142.003 214.116 142.319L214.155 142.463L213.472 142.641L213.422 142.447C213.402 142.322 213.337 142.209 213.238 142.13C213.196 142.101 213.147 142.083 213.096 142.076C213.045 142.069 212.993 142.074 212.944 142.091C212.892 142.1 212.843 142.12 212.801 142.151C212.758 142.182 212.724 142.222 212.7 142.269C212.658 142.388 212.658 142.517 212.7 142.636C212.742 142.817 212.841 142.981 212.983 143.102C213.169 143.245 213.368 143.37 213.577 143.474C213.788 143.585 213.961 143.691 214.099 143.78C214.243 143.884 214.372 144.008 214.483 144.146C214.606 144.312 214.695 144.501 214.744 144.702C214.849 145.006 214.831 145.339 214.694 145.63C214.616 145.761 214.512 145.875 214.388 145.963C214.263 146.051 214.121 146.111 213.972 146.141C213.826 146.187 213.673 146.204 213.521 146.188C213.369 146.173 213.222 146.127 213.088 146.052C212.83 145.86 212.654 145.579 212.594 145.263L212.516 144.985L213.2 144.802L213.288 145.135C213.366 145.43 213.527 145.546 213.777 145.48C214.027 145.413 214.111 145.235 214.033 144.924C213.989 144.745 213.89 144.583 213.749 144.463C213.566 144.317 213.367 144.192 213.155 144.091C212.978 143.996 212.805 143.893 212.638 143.78C212.49 143.682 212.36 143.557 212.255 143.413C212.126 143.25 212.035 143.06 211.989 142.858C211.891 142.559 211.907 142.235 212.033 141.947Z" fill="white"/>
<path d="M217.255 144.035C217.355 144.34 217.335 144.672 217.199 144.963C217.121 145.094 217.017 145.206 216.892 145.293C216.768 145.381 216.626 145.44 216.477 145.469C216.333 145.518 216.18 145.535 216.028 145.52C215.877 145.504 215.731 145.457 215.599 145.38C215.336 145.194 215.157 144.913 215.099 144.596L214.477 142.208C214.375 141.904 214.393 141.572 214.527 141.28C214.605 141.149 214.709 141.035 214.833 140.947C214.958 140.859 215.1 140.798 215.249 140.769C215.395 140.722 215.548 140.706 215.7 140.722C215.852 140.737 215.999 140.783 216.133 140.858C216.391 141.049 216.567 141.331 216.627 141.647L216.744 142.091L216.06 142.269L215.933 141.775C215.855 141.475 215.694 141.358 215.444 141.425C215.194 141.491 215.11 141.669 215.188 141.98L215.833 144.458C215.91 144.757 216.071 144.874 216.321 144.807C216.571 144.741 216.66 144.563 216.583 144.252L216.41 143.597L217.094 143.419L217.255 144.035Z" fill="white"/>
<path d="M219.382 144.43C219.339 144.316 219.304 144.199 219.277 144.08L219.088 143.358C219.061 143.197 218.98 143.051 218.86 142.941C218.801 142.905 218.734 142.882 218.665 142.875C218.596 142.867 218.526 142.875 218.46 142.897L218.216 142.963L218.699 144.835L217.977 145.024L216.782 140.43L217.893 140.141C218.032 140.079 218.183 140.05 218.335 140.058C218.486 140.066 218.634 140.109 218.765 140.185C218.897 140.261 219.008 140.367 219.09 140.495C219.172 140.623 219.223 140.768 219.238 140.919L219.332 141.286C219.404 141.463 219.42 141.659 219.38 141.846C219.339 142.033 219.243 142.204 219.104 142.336C219.284 142.358 219.447 142.45 219.56 142.591C219.694 142.769 219.788 142.974 219.838 143.191L220.021 143.902C220.054 144.03 220.088 144.135 220.115 144.213C220.147 144.293 220.19 144.368 220.243 144.435L219.51 144.63C219.458 144.569 219.415 144.502 219.382 144.43ZM218.043 142.308L218.321 142.236C218.382 142.224 218.44 142.2 218.491 142.166C218.543 142.131 218.587 142.087 218.621 142.036C218.671 141.907 218.671 141.764 218.621 141.636L218.499 141.18C218.48 141.052 218.418 140.934 218.321 140.847C218.276 140.816 218.224 140.797 218.17 140.79C218.116 140.783 218.061 140.789 218.01 140.808L217.666 140.897L218.043 142.308Z" fill="white"/>
<path d="M220.143 139.553L221.337 144.146L220.615 144.335L219.421 139.725L220.143 139.553Z" fill="white"/>
<path d="M222.637 139.169C222.759 139.254 222.862 139.362 222.941 139.487C223.02 139.612 223.074 139.751 223.098 139.897L223.143 140.064C223.201 140.262 223.214 140.471 223.182 140.675C223.144 140.844 223.052 140.996 222.92 141.108C223.315 141.158 223.576 141.436 223.715 141.952L223.809 142.33C223.859 142.473 223.878 142.625 223.867 142.776C223.855 142.927 223.813 143.074 223.743 143.208C223.659 143.337 223.55 143.448 223.422 143.533C223.294 143.618 223.15 143.676 222.998 143.702L221.887 143.997L220.643 139.414L221.754 139.131C222.042 139.027 222.359 139.041 222.637 139.169ZM221.876 141.086L222.159 141.014C222.279 140.989 222.385 140.92 222.454 140.819C222.505 140.689 222.505 140.544 222.454 140.414L222.387 140.158C222.364 140.029 222.299 139.91 222.204 139.819C222.158 139.79 222.107 139.771 222.053 139.764C221.999 139.758 221.944 139.763 221.893 139.78L221.548 139.875L221.876 141.086ZM222.432 143.152L222.843 143.047C222.895 143.037 222.946 143.016 222.99 142.985C223.034 142.955 223.071 142.915 223.098 142.869C223.144 142.749 223.144 142.617 223.098 142.497L222.998 142.097C222.972 141.939 222.894 141.794 222.776 141.686C222.717 141.654 222.652 141.635 222.585 141.63C222.518 141.626 222.45 141.635 222.387 141.658L222.065 141.741L222.432 143.152Z" fill="white"/>
<path d="M225.548 140.208L225.72 140.869L224.726 141.125L225.076 142.469L226.326 142.147L226.498 142.802L224.526 143.313L223.332 138.719L225.298 138.208L225.47 138.864L224.226 139.192L224.559 140.469L225.548 140.208Z" fill="white"/>
<path d="M226.887 137.792C227.032 137.744 227.185 137.727 227.337 137.741C227.489 137.756 227.636 137.801 227.77 137.875C228.027 138.06 228.202 138.336 228.259 138.647L228.864 140.975C228.969 141.275 228.951 141.604 228.814 141.891C228.735 142.021 228.63 142.132 228.504 142.217C228.379 142.303 228.236 142.36 228.087 142.386L226.942 142.686L225.742 138.092L226.887 137.792ZM227.492 141.841L227.898 141.736C227.95 141.726 227.999 141.704 228.042 141.674C228.085 141.643 228.121 141.604 228.148 141.558C228.189 141.439 228.189 141.31 228.148 141.191L227.526 138.803C227.5 138.679 227.434 138.567 227.337 138.486C227.292 138.461 227.244 138.445 227.193 138.439C227.142 138.433 227.091 138.438 227.042 138.453L226.631 138.558L227.492 141.841Z" fill="white"/>
<path d="M174.977 207.988C174.977 207.988 168.233 192.296 171.644 173.265" stroke="#263238" stroke-width="0.555482" stroke-linecap="round" stroke-linejoin="round"/>
<path d="M158.524 224.941C158.524 224.941 144.892 229.107 143.526 232.246C142.159 235.384 149.636 232.74 149.636 232.74" stroke="#263238" stroke-width="0.555482" stroke-linecap="round" stroke-linejoin="round"/>
<path d="M166.906 160.594C166.906 160.594 154.352 173.037 145.953 176.353" stroke="#263238" stroke-width="0.555482" stroke-linecap="round" stroke-linejoin="round"/>
<path d="M125.772 157.25C125.772 157.25 123.484 174.048 132.022 177.22" stroke="#263238" stroke-width="0.555482" stroke-linecap="round" stroke-linejoin="round"/>
<path d="M101.609 191.168C101.609 191.168 101.542 169.149 105.914 162.338" stroke="#263238" stroke-width="0.555482" stroke-linecap="round" stroke-linejoin="round"/>
<path d="M99.9758 168.732C99.9758 168.732 98.7482 182.408 101.509 186.869" stroke="#263238" stroke-width="0.555482" stroke-linecap="round" stroke-linejoin="round"/>
<path d="M90.9881 194.418C90.9881 194.418 81.4393 191.129 79.4618 195.206C77.4843 199.284 85.1555 195.667 85.1555 195.667" stroke="#263238" stroke-width="0.555482" stroke-linecap="round" stroke-linejoin="round"/>
<path d="M96.7317 208.694C96.7317 208.694 87.3552 213.976 86.8719 216.998" stroke="#263238" stroke-width="0.555482" stroke-linecap="round" stroke-linejoin="round"/>
<path d="M112.046 194.084C112.046 194.084 129.994 221.209 139.898 218.72" stroke="#263238" stroke-width="0.555482" stroke-linecap="round" stroke-linejoin="round"/>
<path d="M124.306 232.129C124.306 232.129 110.236 242.445 108.197 241.572" stroke="#263238" stroke-width="0.555482" stroke-linecap="round" stroke-linejoin="round"/>
<path opacity="0.2" d="M222.865 188.113C223.815 187.335 224.443 186.819 224.648 186.657C224.437 186.841 223.826 187.374 222.865 188.113Z" fill="black"/>
</svg>
